# 3ds Max Wavefront OBJ Exporter v0.99 - (c)2007 guruware
# File Created: 19.04.2023 12:48:24

mtllib Box031.mtl

#
# object Box031
#

v  9.0190 78.6016 -9.8286
v  35.3552 78.6614 -9.8286
v  34.6949 82.0583 -9.8286
v  35.3552 78.6614 -19.6711
v  34.6949 82.0583 -19.6711
v  9.0190 78.6016 -19.6711
v  32.7473 87.5002 -9.8286
v  32.7473 87.5002 -19.6711
v  29.6099 93.0988 -9.8286
v  29.6099 93.0988 -19.6711
v  25.4402 97.7742 -9.8286
v  25.4402 97.7742 -19.6711
v  20.4471 101.2921 -9.8286
v  20.4471 101.2921 -19.6711
v  14.8810 103.4759 -9.8286
v  14.8810 103.4759 -19.6711
v  9.0190 104.2162 -9.8286
v  9.0190 104.2162 -19.6711
v  -16.6568 82.0583 -9.8286
v  -17.3171 78.6614 -9.8286
v  -16.6568 82.0583 -19.6711
v  -17.3171 78.6614 -19.6711
v  -14.7092 87.5002 -9.8286
v  -14.7092 87.5002 -19.6711
v  -11.5718 93.0988 -9.8286
v  -11.5718 93.0988 -19.6711
v  -7.4020 97.7742 -9.8286
v  -7.4020 97.7742 -19.6711
v  -2.4089 101.2921 -9.8286
v  -2.4089 101.2921 -19.6711
v  3.1571 103.4759 -9.8286
v  3.1571 103.4759 -19.6711
# 32 vertices

vn 0.0000 0.0000 1.0000
vn 0.7372 0.1433 0.6603
vn 0.6976 0.1914 0.6904
vn 0.7372 0.1433 -0.6603
vn 0.6976 0.1914 -0.6904
vn 0.0000 0.0000 -1.0000
vn 0.6598 0.3004 0.6888
vn 0.6598 0.3004 -0.6888
vn 0.5943 0.4239 0.6835
vn 0.5943 0.4239 -0.6835
vn 0.4865 0.5457 0.6823
vn 0.4865 0.5457 -0.6823
vn 0.3470 0.6447 0.6811
vn 0.3470 0.6447 -0.6811
vn 0.1812 0.7102 0.6803
vn 0.1812 0.7102 -0.6803
vn 0.0000 0.7332 0.6800
vn 0.0000 0.7332 -0.6800
vn -0.6976 0.1914 0.6904
vn -0.7372 0.1433 0.6603
vn -0.6976 0.1914 -0.6904
vn -0.7372 0.1433 -0.6603
vn -0.6598 0.3004 0.6888
vn -0.6598 0.3004 -0.6888
vn -0.5943 0.4238 0.6835
vn -0.5943 0.4238 -0.6835
vn -0.4865 0.5457 0.6823
vn -0.4865 0.5457 -0.6823
vn -0.3470 0.6447 0.6811
vn -0.3470 0.6447 -0.6811
vn -0.1812 0.7102 0.6803
vn -0.1812 0.7102 -0.6803
# 32 vertex normals

vt 0.0000 0.5000 0.0000
vt 0.3750 0.0000 0.0000
vt 0.3750 0.1429 0.0000
vt 0.5000 0.0000 0.0000
vt 0.5000 0.1429 0.0000
vt 0.8750 0.5000 0.0000
vt 0.3750 0.2857 0.0000
vt 0.5000 0.2857 0.0000
vt 0.3750 0.4286 0.0000
vt 0.5000 0.4286 0.0000
vt 0.3750 0.5714 0.0000
vt 0.5000 0.5714 0.0000
vt 0.3750 0.7143 0.0000
vt 0.5000 0.7143 0.0000
vt 0.3750 0.8571 0.0000
vt 0.5000 0.8571 0.0000
vt 0.3750 1.0000 0.0000
vt 0.5000 1.0000 0.0000
# 18 texture coords

o Box031
g Box031
usemtl wire_196088225
s 1
f 1/1/1 2/2/2 3/3/3 
s 2
f 2/2/2 4/4/4 5/5/5 3/3/3 
s 1
f 4/4/4 6/6/6 5/5/5 
f 1/1/1 3/3/3 7/7/7 
s 2
f 3/3/3 5/5/5 8/8/8 7/7/7 
s 1
f 5/5/5 6/6/6 8/8/8 
f 1/1/1 7/7/7 9/9/9 
s 2
f 7/7/7 8/8/8 10/10/10 9/9/9 
s 1
f 8/8/8 6/6/6 10/10/10 
f 1/1/1 9/9/9 11/11/11 
s 2
f 9/9/9 10/10/10 12/12/12 11/11/11 
s 1
f 10/10/10 6/6/6 12/12/12 
f 1/1/1 11/11/11 13/13/13 
s 2
f 11/11/11 12/12/12 14/14/14 13/13/13 
s 1
f 12/12/12 6/6/6 14/14/14 
f 1/1/1 13/13/13 15/15/15 
s 2
f 13/13/13 14/14/14 16/16/16 15/15/15 
s 1
f 14/14/14 6/6/6 16/16/16 
f 1/1/1 15/15/15 17/17/17 
s 2
f 15/15/15 16/16/16 18/18/18 17/17/17 
s 1
f 16/16/16 6/6/6 18/18/18 
f 1/1/1 19/3/19 20/2/20 
s 2
f 20/2/20 19/3/19 21/5/21 22/4/22 
s 1
f 22/4/22 21/5/21 6/6/6 
f 1/1/1 23/7/23 19/3/19 
s 2
f 19/3/19 23/7/23 24/8/24 21/5/21 
s 1
f 21/5/21 24/8/24 6/6/6 
f 1/1/1 25/9/25 23/7/23 
s 2
f 23/7/23 25/9/25 26/10/26 24/8/24 
s 1
f 24/8/24 26/10/26 6/6/6 
f 1/1/1 27/11/27 25/9/25 
s 2
f 25/9/25 27/11/27 28/12/28 26/10/26 
s 1
f 26/10/26 28/12/28 6/6/6 
f 1/1/1 29/13/29 27/11/27 
s 2
f 27/11/27 29/13/29 30/14/30 28/12/28 
s 1
f 28/12/28 30/14/30 6/6/6 
f 1/1/1 31/15/31 29/13/29 
s 2
f 29/13/29 31/15/31 32/16/32 30/14/30 
s 1
f 30/14/30 32/16/32 6/6/6 
f 1/1/1 17/17/17 31/15/31 
s 2
f 31/15/31 17/17/17 18/18/18 32/16/32 
s 1
f 32/16/32 18/18/18 6/6/6 
# 14 polygons - 28 triangles

