# 3ds Max Wavefront OBJ Exporter v0.99 - (c)2007 guruware
# File Created: 19.04.2023 12:48:30

mtllib Post_Upper.mtl

#
# object Post_Upper
#

v  11.1480 148.8822 -0.2544
v  11.1480 148.8822 -8.8203
v  11.1480 129.1971 -8.8203
v  11.1480 129.1971 -0.2544
v  21.9671 148.8822 -8.8203
v  21.9671 129.1971 -8.8203
v  21.9671 148.8822 -0.1511
v  21.9671 129.1971 -0.9778
v  10.1638 127.0905 -9.8046
v  10.1638 127.0905 0.0064
v  22.9514 127.0905 -9.8046
v  22.9514 127.0905 0.0064
v  11.1480 124.9838 -8.8203
v  11.1480 124.9838 -0.2188
v  21.9671 124.9838 -8.8203
v  21.9671 124.9838 -0.9778
v  11.1480 105.2988 -8.8203
v  11.1480 105.2988 -0.2188
v  21.9671 105.2988 -8.8203
v  21.9671 105.2988 -0.9778
v  10.1638 103.1921 -9.8046
v  10.1638 103.1921 0.0064
v  22.9514 103.1921 -9.8046
v  22.9514 103.1921 0.0064
v  11.1480 101.0854 -8.8203
v  11.1480 101.0854 -0.1423
v  21.9671 101.0854 -8.8203
v  21.9671 101.0854 -0.9778
v  11.1480 81.4004 -8.8203
v  11.1480 81.4004 -0.1423
v  21.9671 81.4004 -8.8203
v  21.9671 81.4004 -0.9778
v  10.1638 79.2937 -9.8046
v  10.1638 79.2937 0.0064
v  22.9514 79.2937 -9.8046
v  22.9514 79.2937 0.0064
v  6.6095 158.6408 -11.5043
v  6.6095 158.6408 2.2010
v  25.2092 158.6408 2.4657
v  25.2092 158.6408 -11.5043
# 40 vertices

vn -0.9731 -0.2303 -0.0000
vn -0.6537 -0.2629 -0.7096
vn -0.6671 0.3316 -0.6671
vn -0.9745 0.2242 -0.0000
vn 0.6812 -0.2215 -0.6978
vn 0.6671 0.3316 -0.6671
vn 0.9848 -0.1736 -0.0000
vn 0.9712 0.2384 -0.0000
vn -0.7071 0.0000 -0.7071
vn -1.0000 -0.0024 -0.0000
vn 0.7071 0.0000 -0.7071
vn 1.0000 0.0000 -0.0000
vn -0.6671 -0.3316 -0.6671
vn -0.9748 -0.2233 -0.0000
vn 0.6671 -0.3316 -0.6671
vn 0.9705 -0.2412 -0.0000
vn -0.9748 0.2233 -0.0000
vn 0.9705 0.2412 -0.0000
vn -1.0000 -0.0051 -0.0000
vn -0.9752 -0.2211 -0.0000
vn -0.9752 0.2211 -0.0000
vn -0.5900 0.5513 -0.5900
vn -0.9060 0.4233 -0.0000
vn 0.5900 0.5513 -0.5900
vn 0.9060 0.4233 -0.0000
vn -0.6751 0.3967 -0.6220
vn -0.7683 0.6401 -0.0000
vn 0.7400 0.6726 -0.0000
vn 0.6480 0.4265 -0.6310
# 29 vertex normals

vt 0.3962 0.5453 0.0000
vt 0.3913 0.6744 0.0000
vt 0.0941 0.6662 0.0000
vt 0.1007 0.5328 0.0000
vt 0.3891 0.8374 0.0000
vt 0.0921 0.8385 0.0000
vt 0.3907 0.9680 0.0000
vt 0.0939 0.9614 0.0000
vt 0.0588 0.6634 0.0000
vt 0.0660 0.5238 0.0000
vt 0.0577 0.8401 0.0000
vt 0.0570 0.9800 0.0000
vt 0.0246 0.6624 0.0000
vt 0.0296 0.5255 0.0000
vt 0.0236 0.8396 0.0000
vt 0.0200 0.9646 0.0000
vt 0.6659 0.4465 0.0000
vt 0.6659 0.3174 0.0000
vt 0.9614 0.3174 0.0000
vt 0.9614 0.4465 0.0000
vt 0.6659 0.1550 0.0000
vt 0.9614 0.1550 0.0000
vt 0.6659 0.0372 0.0000
vt 0.9614 0.0372 0.0000
vt 0.4318 0.5712 0.0000
vt 0.5685 0.5712 0.0000
vt 0.5688 0.6063 0.0000
vt 0.4291 0.6063 0.0000
vt 0.7455 0.5717 0.0000
vt 0.7452 0.6061 0.0000
vt 0.8708 0.5720 0.0000
vt 0.8850 0.6084 0.0000
vt 0.5704 0.6415 0.0000
vt 0.4347 0.6412 0.0000
vt 0.7429 0.6414 0.0000
vt 0.8658 0.6430 0.0000
vt 0.5706 0.9398 0.0000
vt 0.4353 0.9359 0.0000
vt 0.7426 0.9401 0.0000
vt 0.8652 0.9365 0.0000
vt 0.5685 0.9763 0.0000
vt 0.4291 0.9686 0.0000
vt 0.7447 0.9768 0.0000
vt 0.8841 0.9684 0.0000
vt 0.0200 0.5010 0.0000
vt 0.0200 0.2953 0.0000
vt 0.2992 0.2913 0.0000
vt 0.2992 0.5010 0.0000
vt 0.2497 0.1725 0.0000
vt 0.1479 0.2511 0.0000
vt 0.0200 0.1457 0.0000
vt 0.1829 0.0200 0.0000
vt 0.5214 0.2446 0.0000
vt 0.4121 0.1739 0.0000
vt 0.4621 0.0224 0.0000
vt 0.6382 0.1363 0.0000
# 56 texture coords

o Post_Upper
g Post_Upper
usemtl 01___Default
s off
f 1/1/1 2/2/2 3/3/3 4/4/4 
f 2/2/2 5/5/5 6/6/6 3/3/3 
f 5/5/5 7/7/7 8/8/8 6/6/6 
f 4/4/4 3/3/3 9/9/9 10/10/10 
f 3/3/3 6/6/6 11/11/11 9/9/9 
f 6/6/6 8/8/8 12/12/12 11/11/11 
f 10/10/10 9/9/9 13/13/13 14/14/14 
f 9/9/9 11/11/11 15/15/15 13/13/13 
f 11/11/11 12/12/12 16/16/16 15/15/15 
f 14/17/14 13/18/13 17/19/3 18/20/17 
f 13/18/13 15/21/15 19/22/6 17/19/3 
f 15/21/15 16/23/16 20/24/18 19/22/6 
f 18/25/17 17/26/3 21/27/9 22/28/19 
f 17/26/3 19/29/6 23/30/11 21/27/9 
f 19/29/6 20/31/18 24/32/12 23/30/11 
f 22/28/19 21/27/9 25/33/13 26/34/20 
f 21/27/9 23/30/11 27/35/15 25/33/13 
f 23/30/11 24/32/12 28/36/16 27/35/15 
f 26/34/20 25/33/13 29/37/3 30/38/21 
f 25/33/13 27/35/15 31/39/6 29/37/3 
f 27/35/15 28/36/16 32/40/18 31/39/6 
f 30/38/21 29/37/3 33/41/22 34/42/23 
f 29/37/3 31/39/6 35/43/24 33/41/22 
f 31/39/6 32/40/18 36/44/25 35/43/24 
f 37/45/26 38/46/27 39/47/28 40/48/29 
f 2/49/2 1/50/1 38/51/27 37/52/26 
f 7/53/7 5/54/5 40/55/29 39/56/28 
f 5/54/5 2/49/2 37/52/26 40/55/29 
# 28 polygons

