# 3ds Max Wavefront OBJ Exporter v0.99 - (c)2007 guruware
# File Created: 19.04.2023 12:48:21

mtllib Post.mtl

#
# object Post
#

v  -6.6016 79.4310 0.0985
v  6.1860 79.4310 0.0985
v  6.1860 79.4310 -9.7125
v  -6.6016 79.4310 -9.7125
v  8.8514 0.0000 2.4222
v  8.8514 0.0000 -12.0362
v  7.7921 9.8425 -9.7283
v  7.7921 9.8425 0.1143
v  -9.5696 0.0000 -12.0362
v  -8.2077 9.8425 -9.7283
v  -9.5696 0.0000 2.4222
v  -8.2077 9.8425 0.1143
v  5.2018 9.8425 -8.7283
v  5.2018 9.8425 -0.1624
v  -5.6174 9.8425 -8.7283
v  -5.6174 9.8425 -0.8857
v  5.2018 29.5276 -8.7283
v  5.2018 29.5276 -0.1624
v  -5.6174 29.5276 -8.7283
v  -5.6174 29.5276 -0.8857
v  6.1860 31.6342 -9.7125
v  6.1860 31.6342 0.0985
v  -6.6016 31.6342 -9.7125
v  -6.6016 31.6342 0.0985
v  5.2018 33.7409 -8.7283
v  5.2018 33.7409 -0.1268
v  -5.6174 33.7409 -8.7283
v  -5.6174 33.7409 -0.8857
v  5.2018 53.4259 -8.7283
v  5.2018 53.4259 -0.1268
v  -5.6174 53.4259 -8.7283
v  -5.6174 53.4259 -0.8857
v  6.1860 55.5326 -9.7125
v  6.1860 55.5326 0.0985
v  -6.6016 55.5326 -9.7125
v  -6.6016 55.5326 0.0985
v  5.2018 57.6392 -8.7283
v  5.2018 57.6392 -0.0502
v  -5.6174 57.6392 -8.7283
v  -5.6174 57.6392 -0.8857
v  5.2018 77.3243 -8.7283
v  5.2018 77.3243 -0.0502
v  -5.6174 77.3243 -8.7283
v  -5.6174 77.3243 -0.8857
# 44 vertices

vn -0.6595 0.3607 0.6595
vn 0.6938 0.4335 0.5752
vn 0.6595 0.3607 -0.6595
vn -0.6595 0.3607 -0.6595
vn 0.9943 0.1070 -0.0000
vn 0.6632 0.2378 -0.7097
vn 0.5531 0.6633 -0.5041
vn 0.7338 0.6794 -0.0000
vn -0.6660 0.2564 -0.7005
vn -0.5423 0.6715 -0.5050
vn -0.9906 0.1371 -0.0000
vn -0.7759 0.6309 -0.0000
vn 0.3015 0.9045 -0.3015
vn 0.6836 0.7299 -0.0000
vn -0.3015 0.9045 -0.3015
vn -0.6294 0.7771 -0.0000
vn 0.6671 -0.3316 -0.6671
vn 0.9745 -0.2242 -0.0000
vn -0.6671 -0.3316 -0.6671
vn -0.9705 -0.2412 -0.0000
vn 0.7071 0.0000 -0.7071
vn 1.0000 0.0024 -0.0000
vn -0.7071 0.0000 -0.7071
vn -1.0000 0.0000 -0.0000
vn 0.6671 0.3316 -0.6671
vn 0.9748 0.2233 -0.0000
vn -0.6671 0.3316 -0.6671
vn -0.9705 0.2412 -0.0000
vn 0.9748 -0.2233 -0.0000
vn 1.0000 0.0051 -0.0000
vn 0.9752 0.2211 -0.0000
vn 0.8039 -0.2112 0.5560
vn -0.8212 -0.4008 0.4063
# 33 vertex normals

vt 0.9006 0.2562 0.0000
vt 0.9107 0.4562 0.0000
vt 0.7573 0.4640 0.0000
vt 0.7472 0.2640 0.0000
vt 0.7425 0.9458 0.0000
vt 0.7425 0.7194 0.0000
vt 0.8975 0.7555 0.0000
vt 0.8975 0.9096 0.0000
vt 0.6916 0.0209 0.0000
vt 0.9800 0.0200 0.0000
vt 0.9592 0.1783 0.0000
vt 0.7087 0.1791 0.0000
vt 0.8981 0.5017 0.0000
vt 0.8981 0.7281 0.0000
vt 0.7425 0.6919 0.0000
vt 0.7425 0.5378 0.0000
vt 0.7009 0.3594 0.0000
vt 0.7009 0.2053 0.0000
vt 0.7414 0.2209 0.0000
vt 0.7414 0.3550 0.0000
vt 0.9514 0.2053 0.0000
vt 0.9108 0.2209 0.0000
vt 0.9514 0.3594 0.0000
vt 0.9108 0.3437 0.0000
vt 0.6940 0.5341 0.0000
vt 0.6976 0.6682 0.0000
vt 0.3895 0.6765 0.0000
vt 0.3859 0.5425 0.0000
vt 0.7022 0.8375 0.0000
vt 0.3941 0.8458 0.0000
vt 0.7055 0.9602 0.0000
vt 0.3974 0.9686 0.0000
vt 0.2042 0.0254 0.0000
vt 0.1998 0.1684 0.0000
vt 0.1638 0.1676 0.0000
vt 0.1656 0.0200 0.0000
vt 0.1977 0.3547 0.0000
vt 0.1618 0.3547 0.0000
vt 0.1989 0.4863 0.0000
vt 0.1602 0.5023 0.0000
vt 0.1279 0.1676 0.0000
vt 0.1269 0.0239 0.0000
vt 0.1259 0.3539 0.0000
vt 0.1219 0.4855 0.0000
vt 0.6651 0.3280 0.0000
vt 0.5305 0.3324 0.0000
vt 0.5204 0.0244 0.0000
vt 0.6550 0.0200 0.0000
vt 0.3612 0.3379 0.0000
vt 0.3511 0.0299 0.0000
vt 0.2385 0.3419 0.0000
vt 0.2284 0.0339 0.0000
vt 0.0982 0.0245 0.0000
vt 0.0950 0.1681 0.0000
vt 0.0590 0.1676 0.0000
vt 0.0595 0.0200 0.0000
vt 0.0946 0.3544 0.0000
vt 0.0587 0.3548 0.0000
vt 0.0970 0.4859 0.0000
vt 0.0585 0.5024 0.0000
vt 0.0230 0.1679 0.0000
vt 0.0208 0.0231 0.0000
vt 0.0228 0.3542 0.0000
vt 0.0200 0.4858 0.0000
vt 0.3466 0.5295 0.0000
vt 0.3507 0.6653 0.0000
vt 0.0426 0.6746 0.0000
vt 0.0385 0.5388 0.0000
vt 0.3558 0.8346 0.0000
vt 0.0477 0.8439 0.0000
vt 0.3595 0.9573 0.0000
vt 0.0514 0.9666 0.0000
vt 0.3641 0.4230 0.0000
vt 0.5344 0.4264 0.0000
vt 0.5496 0.4589 0.0000
vt 0.3489 0.4589 0.0000
vt 0.6244 0.4766 0.0000
vt 0.5279 0.3809 0.0000
vt 0.5426 0.3442 0.0000
vt 0.6517 0.4523 0.0000
vt 0.3585 0.3843 0.0000
vt 0.3424 0.3482 0.0000
vt 0.2748 0.4741 0.0000
vt 0.2377 0.4606 0.0000
# 84 texture coords

o Post
g Post
usemtl 01___Default
s 4
f 1/1/1 2/2/2 3/3/3 4/4/4 
s 16
f 5/5/5 6/6/6 7/7/7 8/8/8 
s 32
f 6/9/6 9/10/9 10/11/10 7/12/7 
s 64
f 9/13/9 11/14/11 12/15/12 10/16/10 
s off
f 8/17/8 7/18/7 13/19/13 14/20/14 
f 7/18/7 10/21/10 15/22/15 13/19/13 
f 10/21/10 12/23/12 16/24/16 15/22/15 
f 14/25/14 13/26/13 17/27/17 18/28/18 
f 13/26/13 15/29/15 19/30/19 17/27/17 
f 15/29/15 16/31/16 20/32/20 19/30/19 
f 18/33/18 17/34/17 21/35/21 22/36/22 
f 17/34/17 19/37/19 23/38/23 21/35/21 
f 19/37/19 20/39/20 24/40/24 23/38/23 
f 22/36/22 21/35/21 25/41/25 26/42/26 
f 21/35/21 23/38/23 27/43/27 25/41/25 
f 23/38/23 24/40/24 28/44/28 27/43/27 
f 26/45/26 25/46/25 29/47/17 30/48/29 
f 25/46/25 27/49/27 31/50/19 29/47/17 
f 27/49/27 28/51/28 32/52/20 31/50/19 
f 30/53/29 29/54/17 33/55/21 34/56/30 
f 29/54/17 31/57/19 35/58/23 33/55/21 
f 31/57/19 32/59/20 36/60/24 35/58/23 
f 34/56/30 33/55/21 37/61/25 38/62/31 
f 33/55/21 35/58/23 39/63/27 37/61/25 
f 35/58/23 36/60/24 40/64/28 39/63/27 
f 38/65/31 37/66/25 41/67/17 42/68/32 
f 37/66/25 39/69/27 43/70/19 41/67/17 
f 39/69/27 40/71/28 44/72/33 43/70/19 
f 44/73/33 42/74/32 2/75/2 1/76/1 
f 42/77/32 41/78/17 3/79/3 2/80/2 
f 41/78/17 43/81/19 4/82/4 3/79/3 
f 43/81/19 44/83/33 1/84/1 4/82/4 
# 32 polygons

