# 3ds Max Wavefront OBJ Exporter v0.99 - (c)2007 guruware
# File Created: 19.04.2023 12:48:25

mtllib StoneWall_Window.mtl

#
# object StoneWall_Window
#

v  -19.6507 -0.0000 0.0000
v  -19.6507 20.7995 -0.0050
v  0.0000 20.7995 0.0000
v  0.0000 -0.0000 0.0000
v  -13.1234 78.7402 0.0000
v  -13.1234 71.7905 -0.0027
v  -23.6796 73.6630 -0.0034
v  -24.3782 73.4777 -0.0040
v  -35.0085 71.6051 -0.0046
v  -35.0085 78.7402 0.0000
v  0.0000 39.3701 0.8190
v  -7.5339 39.3701 0.8190
v  -7.5105 41.1749 0.8190
v  0.0000 41.1749 0.8190
v  0.0000 65.1533 0.8190
v  -7.5759 65.2380 0.8190
v  -7.5654 66.1043 0.8190
v  0.0000 66.1043 0.8190
v  -7.5759 41.1749 -0.0050
v  -7.5759 65.1533 -0.0050
v  0.0000 65.1533 0.0000
v  0.0000 41.1749 -0.0050
v  -19.6507 41.1749 -0.0050
v  -19.6507 65.1533 -0.0050
v  -8.2294 65.1533 -0.0050
v  -8.2294 41.1749 -0.0050
v  -13.1234 66.1043 0.8190
v  -13.1234 78.7402 0.8190
v  -12.6641 78.7402 0.8190
v  -12.6666 66.1043 0.8190
v  -19.6507 20.7995 0.8190
v  -19.6535 39.3701 -0.0050
v  -19.7421 22.0995 -0.0050
v  -19.7421 22.0995 0.8190
v  -19.6507 39.3701 0.8190
v  0.0000 39.3701 0.0000
v  -35.0085 66.1043 -0.0083
v  -24.3782 66.1043 -0.0073
v  -23.6796 66.1043 -0.0062
v  -13.1234 66.1043 -0.0050
v  -29.6617 66.1043 0.8190
v  -8.1830 65.2229 0.8190
v  -8.2294 41.1779 0.8188
v  -12.6641 78.7402 -0.0050
v  0.0000 78.7402 0.0000
v  0.0000 66.1043 -0.0050
v  -12.6641 66.1043 -0.0050
v  0.0000 22.0973 -0.0050
v  0.0516 20.7972 0.8174
v  0.0516 22.0973 0.8174
v  -19.6507 41.1749 0.8190
v  -19.9901 65.1533 0.8157
v  -19.6476 39.3701 19.6642
v  -19.6507 41.1749 19.6642
v  -19.6507 -0.0000 19.6642
v  -19.6507 20.7995 19.6642
v  -19.6261 22.0995 19.6642
v  -19.6507 65.1533 19.6609
v  -29.5557 -0.0000 -0.0465
v  -29.5688 -0.0000 19.6642
v  -29.5688 65.1533 19.6609
v  -29.6578 65.1533 0.7853
v  -29.6817 39.3701 19.6642
v  -29.5688 41.1749 19.6642
v  -29.5688 20.7995 19.6642
v  -29.6602 22.0995 19.6642
v  -8.1888 66.1043 0.8190
v  -8.2661 39.3701 0.8190
v  -29.6817 39.3701 0.8346
v  -29.5688 41.1749 0.8346
v  -29.5688 20.7995 0.8346
v  -29.6602 22.0995 0.8346
v  -29.6817 39.3701 -0.0100
v  -29.5688 41.1749 -0.0100
v  -29.5688 20.7995 -0.0100
v  -29.6602 22.0995 -0.0100
v  -29.6578 65.1533 -0.0593
v  -39.4158 66.1043 -0.0083
v  -39.4158 78.7402 0.0000
v  -39.4120 65.1533 0.7853
v  -39.4158 66.1043 0.8190
v  -39.5231 65.1533 -0.0593
v  -39.4359 39.3701 -0.0100
v  -39.4340 41.1749 -0.0100
v  -39.3672 -0.0000 -0.0465
v  -39.3802 20.7995 -0.0100
v  -39.4143 22.0995 -0.0100
v  -24.3782 66.1048 -1.6238
v  -35.0085 66.1048 -1.6248
v  -35.0085 71.7909 -1.6211
v  -24.3782 73.6635 -1.6205
v  -23.6795 73.6634 -1.6199
v  -13.1233 71.7908 -1.6193
v  -13.1233 66.1047 -1.6215
v  -23.6795 66.1047 -1.6227
# 95 vertices

vn -0.5769 0.5784 -0.5768
vn -0.5773 0.5772 -0.5775
vn 0.0002 0.7220 -0.6919
vn 0.0000 0.0000 -1.0000
vn 0.7072 0.0003 -0.7070
vn 0.9227 0.2863 -0.2581
vn -0.5290 0.6292 0.5694
vn 0.2726 0.3071 -0.9118
vn 0.5209 0.6650 -0.5351
vn 0.0000 0.0006 -1.0000
vn 0.0000 0.7071 -0.7071
vn -0.3056 -0.3231 -0.8956
vn 0.0000 -0.7071 -0.7071
vn 0.0079 0.7096 -0.7046
vn -0.2722 0.2922 -0.9168
vn -0.6019 -0.5733 -0.5560
vn -0.5828 0.5444 -0.6033
vn 0.0005 0.7073 -0.7069
vn 0.0000 -0.7070 -0.7072
vn -0.5774 -0.5774 -0.5774
vn -0.4443 0.6008 -0.6645
vn 0.5634 0.5527 -0.6141
vn 0.5772 -0.5785 -0.5764
vn 0.3017 -0.2996 -0.9051
vn 0.7071 0.0000 -0.7071
vn -0.7071 0.0001 -0.7071
vn -0.3013 -0.3007 -0.9049
vn -0.9062 0.2811 -0.3158
vn -0.5767 0.5785 -0.5768
vn -0.5789 -0.5760 -0.5771
vn -0.9039 -0.3195 -0.2844
vn -0.9038 0.3051 -0.3001
vn 0.0002 0.7073 -0.7069
vn -0.3016 -0.9044 -0.3017
vn 0.3021 -0.9043 -0.3016
vn -0.5768 0.5774 -0.5779
vn 0.7071 -0.7071 -0.0001
vn 0.0000 -0.6945 -0.7195
vn 0.2751 0.2808 -0.9195
vn 0.3028 -0.3025 -0.9038
vn -0.7070 0.0000 -0.7072
vn 0.0004 0.0004 -1.0000
vn -0.5764 -0.5775 -0.5781
vn -0.0001 -0.7208 -0.6932
vn 0.0000 0.6935 -0.7205
vn -0.0001 -0.6926 -0.7213
vn -0.9022 -0.3092 -0.3008
vn -0.6272 -0.1068 -0.7715
vn -0.7072 -0.0010 -0.7070
vn -0.7069 -0.0006 -0.7073
vn -0.5774 0.5774 -0.5774
vn -0.7049 0.0067 -0.7092
vn -0.7114 0.0063 -0.7027
vn -0.5831 -0.5764 -0.5725
vn 0.5772 0.5777 -0.5772
vn 0.5775 0.5774 -0.5772
vn 0.5759 -0.5776 -0.5785
vn 0.7068 0.0294 -0.7069
vn 0.7138 -0.0219 -0.7000
vn 0.6996 -0.0219 -0.7142
vn 0.6986 0.0245 -0.7151
vn 0.7142 0.0255 -0.6994
vn -0.0000 -0.7071 -0.7071
vn 0.0000 0.7071 -0.7072
vn 0.9995 -0.0306 -0.0000
vn 0.9996 -0.0294 -0.0000
vn 0.9994 0.0354 -0.0000
vn 0.9994 0.0357 -0.0000
vn 0.6995 -0.0214 -0.7143
vn 0.7143 -0.0217 -0.6995
vn 0.7145 0.0259 -0.6991
vn 0.6987 0.0250 -0.7149
vn 0.5761 0.5778 -0.5782
vn 0.0000 -0.7070 -0.7073
vn 0.0000 0.0007 -1.0000
vn 0.0000 0.7449 -0.6671
vn 0.0000 -0.6954 -0.7186
vn 0.0000 0.6758 -0.7371
vn 0.0000 -0.0010 -1.0000
vn 0.0000 0.0018 -1.0000
vn 0.0000 0.0009 -1.0000
vn 0.5773 -0.5771 -0.5776
vn -0.5773 -0.5772 -0.5776
vn -0.6169 0.5550 -0.5581
vn 0.5209 0.6650 -0.5352
vn -0.5283 0.6306 -0.5685
vn 0.6204 0.5202 -0.5870
vn 0.5774 -0.5771 -0.5775
vn -0.5773 -0.5772 -0.5775
# 89 vertex normals

vt 0.2864 0.0340 0.0000
vt 0.2860 0.1809 0.0000
vt 0.1472 0.1805 0.0000
vt 0.1476 0.0336 0.0000
vt 0.9107 0.2380 0.0000
vt 0.9115 0.3160 0.0000
vt 0.7928 0.2962 0.0000
vt 0.7849 0.2984 0.0000
vt 0.6658 0.3206 0.0000
vt 0.6650 0.2405 0.0000
vt 0.0444 0.0200 0.0000
vt 0.0490 0.0725 0.0000
vt 0.0365 0.0734 0.0000
vt 0.0319 0.0211 0.0000
vt 0.6741 0.9292 0.0000
vt 0.7591 0.9285 0.0000
vt 0.7592 0.9382 0.0000
vt 0.6743 0.9399 0.0000
vt 0.4296 0.3923 0.0000
vt 0.4366 0.6614 0.0000
vt 0.3516 0.6636 0.0000
vt 0.3445 0.3945 0.0000
vt 0.9351 0.2099 0.0000
vt 0.6659 0.2137 0.0000
vt 0.6641 0.0855 0.0000
vt 0.9333 0.0817 0.0000
vt 0.3065 0.7250 0.0000
vt 0.4484 0.7231 0.0000
vt 0.4484 0.7283 0.0000
vt 0.3066 0.7302 0.0000
vt 0.2918 0.1809 0.0000
vt 0.4900 0.2072 0.0000
vt 0.4902 0.3292 0.0000
vt 0.4844 0.3292 0.0000
vt 0.4842 0.2072 0.0000
vt 0.0824 0.8194 0.0000
vt 0.1577 0.8592 0.0000
vt 0.0790 0.8280 0.0000
vt 0.6099 0.5441 0.0000
vt 0.5876 0.6262 0.0000
vt 0.5787 0.6237 0.0000
vt 0.6007 0.5424 0.0000
vt 0.6293 0.7730 0.0000
vt 0.5963 0.8515 0.0000
vt 0.5878 0.8479 0.0000
vt 0.6208 0.7695 0.0000
vt 0.5560 0.3484 0.0000
vt 0.6753 0.3477 0.0000
vt 0.6832 0.3477 0.0000
vt 0.8017 0.3470 0.0000
vt 0.8017 0.3563 0.0000
vt 0.6161 0.3574 0.0000
vt 0.6695 0.0493 0.0000
vt 0.6700 0.0427 0.0000
vt 0.9407 0.0431 0.0000
vt 0.9412 0.0514 0.0000
vt 0.8799 0.7751 0.0000
vt 0.7377 0.7751 0.0000
vt 0.7377 0.6333 0.0000
vt 0.8799 0.6332 0.0000
vt 0.6288 0.2062 0.0000
vt 0.6297 0.3282 0.0000
vt 0.3064 0.7158 0.0000
vt 0.3702 0.7149 0.0000
vt 0.4482 0.7139 0.0000
vt 0.4486 0.7375 0.0000
vt 0.3067 0.7394 0.0000
vt 0.9252 0.3296 0.0000
vt 0.7013 0.3295 0.0000
vt 0.9083 0.3509 0.0000
vt 0.9243 0.3289 0.0000
vt 0.8958 0.3864 0.0000
vt 0.8963 0.3956 0.0000
vt 0.6741 0.3926 0.0000
vt 0.6742 0.3834 0.0000
vt 0.6710 0.0336 0.0000
vt 0.9407 0.0336 0.0000
vt 0.9369 0.0560 0.0000
vt 0.6697 0.0584 0.0000
vt 0.3114 0.4016 0.0000
vt 0.3145 0.6709 0.0000
vt 0.3054 0.6710 0.0000
vt 0.3016 0.4017 0.0000
vt 0.0526 0.7920 0.0000
vt 0.0382 0.7897 0.0000
vt 0.0734 0.5713 0.0000
vt 0.0880 0.5727 0.0000
vt 0.5245 0.6438 0.0000
vt 0.5242 0.6378 0.0000
vt 0.5780 0.7574 0.0000
vt 0.5715 0.7636 0.0000
vt 0.9256 0.6338 0.0000
vt 0.9241 0.7621 0.0000
vt 0.9148 0.7658 0.0000
vt 0.9163 0.6332 0.0000
vt 0.0439 0.1580 0.0000
vt 0.0565 0.1569 0.0000
vt 0.0681 0.2881 0.0000
vt 0.0555 0.2892 0.0000
vt 0.4253 0.0343 0.0000
vt 0.4249 0.1812 0.0000
vt 0.3513 0.3295 0.0000
vt 0.3511 0.2075 0.0000
vt 0.1071 0.4016 0.0000
vt 0.2765 0.4043 0.0000
vt 0.2744 0.5374 0.0000
vt 0.1050 0.5347 0.0000
vt 0.0924 0.3606 0.0000
vt 0.1069 0.3619 0.0000
vt 0.4717 0.9484 0.0000
vt 0.3331 0.9561 0.0000
vt 0.3289 0.8862 0.0000
vt 0.4679 0.8785 0.0000
vt 0.8518 0.5373 0.0000
vt 0.6404 0.5462 0.0000
vt 0.6378 0.4348 0.0000
vt 0.8496 0.4288 0.0000
vt 0.0626 0.3075 0.0000
vt 0.0555 0.3075 0.0000
vt 0.4953 0.0345 0.0000
vt 0.4950 0.1814 0.0000
vt 0.2804 0.3296 0.0000
vt 0.2802 0.2076 0.0000
vt 0.2732 0.6074 0.0000
vt 0.1039 0.6047 0.0000
vt 0.1002 0.2496 0.0000
vt 0.1149 0.2496 0.0000
vt 0.0928 0.6332 0.0000
vt 0.0852 0.6837 0.0000
vt 0.0836 0.6335 0.0000
vt 0.0495 0.0776 0.0000
vt 0.0369 0.0784 0.0000
vt 0.0636 0.0479 0.0000
vt 0.0568 0.0483 0.0000
vt 0.0563 0.0384 0.0000
vt 0.0633 0.0382 0.0000
vt 0.4932 0.3684 0.0000
vt 0.4430 0.3580 0.0000
vt 0.4932 0.3584 0.0000
vt 0.3607 0.3681 0.0000
vt 0.4378 0.3579 0.0000
vt 0.2521 0.3674 0.0000
vt 0.2522 0.3567 0.0000
vt 0.2876 0.9007 0.0000
vt 0.1653 0.8622 0.0000
vt 0.2841 0.9093 0.0000
vt 0.0975 0.7753 0.0000
vt 0.0855 0.6907 0.0000
vt 0.0883 0.7756 0.0000
vt 0.0271 0.9321 0.0000
vt 0.0200 0.9321 0.0000
vt 0.6345 0.0348 0.0000
vt 0.6279 0.1817 0.0000
vt 0.1474 0.3298 0.0000
vt 0.1472 0.2079 0.0000
vt 0.2711 0.7404 0.0000
vt 0.1018 0.7380 0.0000
vt 0.1003 0.0382 0.0000
vt 0.1149 0.0382 0.0000
vt 0.0271 0.9354 0.0000
vt 0.0200 0.9354 0.0000
vt 0.9666 0.0799 0.0000
vt 0.7331 0.0700 0.0000
vt 0.9666 0.0704 0.0000
vt 0.5983 0.6423 0.0000
vt 0.7138 0.6814 0.0000
vt 0.7119 0.6871 0.0000
vt 0.5963 0.6479 0.0000
vt 0.2314 0.9768 0.0000
vt 0.0620 0.9800 0.0000
vt 0.0619 0.9740 0.0000
vt 0.2313 0.9709 0.0000
vt 0.4701 0.5969 0.0000
vt 0.4701 0.6115 0.0000
vt 0.4606 0.6115 0.0000
vt 0.4606 0.5969 0.0000
vt 0.6332 0.5754 0.0000
vt 0.7111 0.5567 0.0000
vt 0.7712 0.5424 0.0000
vt 0.7827 0.5905 0.0000
vt 0.6447 0.6235 0.0000
vt 0.1426 0.3668 0.0000
vt 0.1427 0.3561 0.0000
vt 0.4609 0.4510 0.0000
vt 0.4516 0.5111 0.0000
vt 0.4515 0.4016 0.0000
vt 0.4608 0.4016 0.0000
vt 0.3009 0.9697 0.0000
vt 0.3002 0.9757 0.0000
vt 0.0295 0.9736 0.0000
vt 0.0224 0.9741 0.0000
vt 0.4515 0.5765 0.0000
vt 0.5298 0.3652 0.0000
vt 0.6390 0.3928 0.0000
vt 0.5565 0.6154 0.0000
vt 0.6897 0.7523 0.0000
vt 0.5742 0.7132 0.0000
vt 0.0609 0.9044 0.0000
vt 0.2302 0.9012 0.0000
vt 0.9603 0.6342 0.0000
vt 0.9748 0.6332 0.0000
vt 0.9748 0.7434 0.0000
vt 0.9603 0.7437 0.0000
vt 0.9002 0.4328 0.0000
vt 0.9076 0.4302 0.0000
vt 0.9346 0.5084 0.0000
vt 0.9279 0.5130 0.0000
vt 0.9204 0.8906 0.0000
vt 0.8013 0.8842 0.0000
vt 0.8047 0.8205 0.0000
vt 0.9249 0.8058 0.0000
vt 0.7760 0.8952 0.0000
vt 0.6571 0.8764 0.0000
vt 0.6559 0.8125 0.0000
vt 0.7744 0.8104 0.0000
vt 0.2522 0.8537 0.0000
vt 0.1926 0.8375 0.0000
vt 0.1954 0.8194 0.0000
vt 0.2570 0.8362 0.0000
vt 0.2551 0.7832 0.0000
vt 0.1339 0.7832 0.0000
vt 0.1336 0.7649 0.0000
vt 0.2547 0.7649 0.0000
vt 0.9248 0.4243 0.0000
vt 0.9525 0.5045 0.0000
vt 0.4833 0.7662 0.0000
vt 0.4833 0.6468 0.0000
vt 0.5015 0.6468 0.0000
vt 0.5015 0.7662 0.0000
vt 0.3062 0.6976 0.0000
vt 0.3700 0.6968 0.0000
vt 0.9016 0.9466 0.0000
vt 0.7831 0.9466 0.0000
vt 0.7831 0.9285 0.0000
vt 0.9016 0.9285 0.0000
vt 0.9108 0.5189 0.0000
vt 0.8830 0.4387 0.0000
vt 0.4265 0.7922 0.0000
vt 0.3062 0.7922 0.0000
vt 0.3062 0.7740 0.0000
vt 0.4265 0.7740 0.0000
# 241 texture coords

o StoneWall_Window
g StoneWall_Window
usemtl 01___Default
s 34
f 1/1/1 2/2/2 3/3/3 4/4/4 
s 36
f 5/5/5 6/6/6 7/7/7 8/8/8 9/9/9 10/10/10 
s 32
f 11/11/11 12/12/11 13/13/12 14/14/13 
f 15/15/14 16/16/15 17/17/13 18/18/13 
f 19/19/16 20/20/17 21/21/18 22/22/19 
f 23/23/20 24/24/21 25/25/22 26/26/23 
f 27/27/24 28/28/25 29/29/26 30/30/27 
s off
f 2/2/2 1/1/1 31/31/28 
f 32/32/29 33/33/30 34/34/31 35/35/32 
f 36/36/33 12/37/11 11/38/11 
f 19/39/16 22/40/19 14/41/13 13/42/12 
f 21/43/18 20/44/17 16/45/15 15/46/14 
f 37/47/34 38/48/35 39/49/36 40/50/37 27/51/24 41/52/38 
s 32
f 42/53/39 16/54/15 13/55/12 43/56/40 
f 44/57/41 45/58/42 46/59/19 47/60/43 
f 33/33/30 32/32/29 36/61/33 48/62/44 
s off
f 40/63/37 6/64/6 5/65/5 28/28/25 27/27/24 
f 44/66/41 47/67/43 30/30/27 29/29/26 
f 3/68/3 2/69/2 31/70/28 49/71/45 
f 48/72/44 50/73/46 34/74/31 33/75/30 
f 20/76/17 19/77/16 13/55/12 16/54/15 
f 26/78/23 25/79/22 42/53/39 43/56/40 
f 24/80/21 23/81/20 51/82/47 52/83/48 
s 32
f 50/84/46 49/85/45 31/86/28 34/87/31 
s off
f 26/88/23 43/89/40 51/90/47 23/91/20 
f 25/92/22 24/93/21 52/94/48 42/95/39 
f 51/96/47 35/97/32 53/98/49 54/99/50 
f 31/31/28 1/1/1 55/100/51 56/101/52 
f 35/35/32 34/34/31 57/102/53 53/103/49 
f 52/104/48 51/105/47 54/106/50 58/107/54 
f 34/87/31 31/86/28 56/108/52 57/109/53 
f 55/110/51 1/111/1 59/112/55 60/113/56 
f 52/114/48 58/115/54 61/116/57 62/117/58 
f 54/99/50 53/98/49 63/118/59 64/119/60 
f 56/101/52 55/100/51 60/120/56 65/121/61 
f 53/103/49 57/102/53 66/122/62 63/123/59 
f 58/107/54 54/106/50 64/124/60 61/125/57 
f 57/109/53 56/108/52 65/126/61 66/127/62 
f 47/128/43 67/129/63 30/130/27 
s 32
f 12/12/11 68/131/64 43/132/40 13/13/12 
f 68/131/64 35/97/32 51/96/47 43/132/40 
f 16/133/15 42/134/39 67/135/63 17/136/13 
f 42/137/39 30/138/27 67/139/63 
f 42/137/39 52/140/48 27/141/24 30/138/27 
f 52/140/48 62/142/58 41/143/38 27/141/24 
s off
f 36/36/33 32/144/29 68/145/64 12/37/11 
f 32/144/29 35/146/32 68/145/64 
f 47/128/43 46/147/19 17/148/13 67/129/63 
f 46/147/19 18/149/13 17/148/13 
f 64/119/60 63/118/59 69/150/65 70/151/66 
f 65/121/61 60/120/56 59/152/55 71/153/67 
f 63/123/59 66/122/62 72/154/68 69/155/65 
f 61/125/57 64/124/60 70/156/66 62/157/58 
f 66/127/62 65/126/61 71/158/67 72/159/68 
f 70/151/66 69/150/65 73/160/69 74/161/70 
f 71/162/67 59/163/55 75/164/71 
f 69/165/65 72/166/68 76/167/72 73/168/69 
f 62/169/58 70/170/66 74/171/70 77/172/73 
f 72/173/68 71/174/67 75/175/71 76/176/72 
f 10/177/10 9/178/9 37/179/34 78/180/74 79/181/75 
f 41/143/38 62/142/58 80/182/76 81/183/77 
f 37/184/34 41/185/38 81/186/77 78/187/74 
f 62/169/58 77/172/73 82/188/78 80/189/76 
f 74/161/70 73/160/69 83/190/4 84/191/79 
f 75/192/71 59/193/55 85/194/80 86/195/81 
f 73/168/69 76/167/72 87/196/4 83/197/4 
f 77/172/73 74/171/70 84/198/79 82/199/78 
f 76/200/72 75/201/71 86/202/81 87/203/4 
s 36
f 39/204/36 38/205/35 8/206/8 7/207/7 
f 88/208/82 89/209/83 90/210/84 91/211/85 
f 92/212/86 93/213/87 94/214/88 95/215/89 
s off
f 37/216/34 9/217/9 90/218/84 89/219/83 
f 9/220/9 8/221/8 91/222/85 90/223/84 
f 8/206/8 38/205/35 88/224/82 91/225/85 
f 38/226/35 37/227/34 89/228/83 88/229/82 
f 6/64/6 40/63/37 94/230/88 93/231/87 
f 40/232/37 39/233/36 95/234/89 94/235/88 
f 39/204/36 7/207/7 92/236/86 95/237/89 
f 7/238/7 6/239/6 93/240/87 92/241/86 
# 72 polygons - 7 triangles

