# 3ds Max Wavefront OBJ Exporter v0.99 - (c)2007 guruware
# File Created: 19.04.2023 12:48:27

mtllib Stone_Wall_Top001.mtl

#
# object Stone_Wall_Top001
#

v  0.1077 -0.0000 -0.0000
v  -19.6461 -0.0000 -0.0000
v  -19.6461 3.2808 -0.0000
v  0.1077 3.2808 -0.0000
v  0.1077 3.2808 0.4116
v  -19.6461 3.2808 0.3937
v  -19.6461 4.3234 0.3937
v  0.1077 4.2765 0.4429
v  0.1077 4.3234 -0.0000
v  -19.6461 4.3234 -0.0000
v  -19.6461 8.9497 -0.0000
v  0.1077 8.9497 -0.0000
v  0.1077 8.9497 0.4429
v  -19.6461 8.9497 0.3937
v  -19.6461 9.8658 0.3937
v  0.1077 9.8200 0.4921
v  -16.4885 17.0604 7.7657
v  -16.4885 17.0604 1.6406
v  -19.6461 17.0604 -0.0000
v  -19.6461 17.0604 9.8425
v  -3.0881 24.9344 6.7997
v  -3.0881 24.9344 2.6067
v  -15.0143 24.9344 2.6067
v  -15.0143 24.9344 6.7997
v  0.1077 8.9497 9.8425
v  0.1077 3.2808 9.8425
v  0.1077 -0.0000 9.8425
v  -19.6429 -0.0000 9.8425
v  0.1077 12.6717 9.8425
v  0.1077 9.8658 -0.0000
v  -19.6461 9.8658 -0.0000
v  0.1077 17.0604 -0.0000
v  -1.7870 17.0604 1.6406
v  0.1077 17.0604 9.8425
v  -1.7870 17.0604 7.7657
v  -19.6461 12.8220 9.8425
v  -19.6607 12.8597 19.6850
v  0.1077 12.7094 19.6850
v  0.1077 3.2808 19.7000
v  0.1077 -0.0000 19.7000
v  0.1077 8.9497 19.7000
v  -19.6429 -0.0000 -0.0000
# 42 vertices

vn 0.5774 -0.5774 -0.5774
vn 0.0000 0.0000 -1.0000
vn 0.0000 0.7071 -0.7071
vn 0.5774 0.5774 -0.5774
vn 0.9009 0.3115 -0.3021
vn 0.0006 0.7073 -0.7069
vn 0.0001 -0.7082 -0.7060
vn 0.8958 -0.2916 -0.3355
vn 0.5831 -0.5434 -0.6040
vn 0.0000 -0.7071 -0.7071
vn 0.8981 0.3194 -0.3023
vn 0.0018 0.7077 -0.7065
vn 0.0019 -0.7087 -0.7055
vn 0.9006 -0.2828 -0.3300
vn -0.2585 0.9332 0.2496
vn -0.2585 0.9332 -0.2496
vn 0.0000 0.7071 0.7071
vn 0.5282 0.6514 0.5447
vn 0.5282 0.6514 -0.5447
vn -0.5207 0.6566 -0.5456
vn -0.5207 0.6566 0.5456
vn 1.0000 0.0000 -0.0000
vn 0.8944 -0.4472 -0.0000
vn 0.0000 -1.0000 -0.0000
vn 0.9058 0.3009 0.2983
vn 0.5824 -0.5475 -0.6009
vn 0.2603 0.9314 -0.2543
vn 0.5774 0.5774 0.5774
vn 0.2603 0.9314 0.2543
vn 0.0054 0.7071 0.7071
vn 0.0076 1.0000 -0.0038
vn 0.7098 0.7044 -0.0027
vn 0.0000 1.0000 -0.0000
# 33 vertex normals

vt 0.5953 0.0375 0.0000
vt 0.9491 0.0404 0.0000
vt 0.9559 0.0992 0.0000
vt 0.5875 0.0962 0.0000
vt 0.5802 0.1041 0.0000
vt 0.9631 0.1069 0.0000
vt 0.9630 0.1271 0.0000
vt 0.5800 0.1234 0.0000
vt 0.5878 0.1321 0.0000
vt 0.9550 0.1347 0.0000
vt 0.9546 0.2170 0.0000
vt 0.5871 0.2144 0.0000
vt 0.5791 0.2229 0.0000
vt 0.9625 0.2247 0.0000
vt 0.9624 0.2425 0.0000
vt 0.5790 0.2398 0.0000
vt 0.7454 0.9403 0.0000
vt 0.7454 0.8241 0.0000
vt 0.8052 0.7930 0.0000
vt 0.8052 0.9797 0.0000
vt 0.1727 0.2534 0.0000
vt 0.1716 0.1739 0.0000
vt 0.3978 0.1708 0.0000
vt 0.3989 0.2504 0.0000
vt 0.7737 0.5906 0.0000
vt 0.7712 0.4808 0.0000
vt 0.9528 0.5001 0.0000
vt 0.9528 0.5904 0.0000
vt 0.7712 0.4174 0.0000
vt 0.9614 0.4174 0.0000
vt 0.9534 0.4808 0.0000
vt 0.0200 0.4960 0.0000
vt 0.3947 0.4960 0.0000
vt 0.3947 0.6828 0.0000
vt 0.0200 0.6828 0.0000
vt 0.9493 0.6070 0.0000
vt 0.7763 0.6587 0.0000
vt 0.5830 0.2494 0.0000
vt 0.9584 0.2501 0.0000
vt 0.9542 0.3839 0.0000
vt 0.5868 0.3833 0.0000
vt 0.4665 0.8241 0.0000
vt 0.4305 0.7930 0.0000
vt 0.4305 0.9797 0.0000
vt 0.4665 0.9403 0.0000
vt 0.5495 0.1505 0.0000
vt 0.5511 0.2667 0.0000
vt 0.4289 0.4005 0.0000
vt 0.1500 0.4042 0.0000
vt 0.0216 0.2738 0.0000
vt 0.0200 0.1576 0.0000
vt 0.1449 0.0237 0.0000
vt 0.4238 0.0200 0.0000
vt 0.0206 0.7100 0.0000
vt 0.3953 0.7129 0.0000
vt 0.3947 0.7933 0.0000
vt 0.0200 0.7933 0.0000
vt 0.3950 0.9800 0.0000
vt 0.0200 0.9800 0.0000
vt 0.6174 0.5222 0.0000
vt 0.6198 0.5844 0.0000
vt 0.4330 0.5919 0.0000
vt 0.4305 0.5297 0.0000
vt 0.6241 0.6919 0.0000
vt 0.4373 0.6993 0.0000
vt 0.6269 0.7624 0.0000
vt 0.4404 0.7706 0.0000
vt 0.9614 0.4808 0.0000
vt 0.9614 0.5010 0.0000
vt 0.9614 0.5904 0.0000
vt 0.9558 0.7388 0.0000
vt 0.7763 0.7388 0.0000
vt 0.5441 0.8521 0.0000
# 73 texture coords

o Stone_Wall_Top001
g Stone_Wall_Top001
usemtl 01___Default
s 32
f 1/1/1 2/2/2 3/3/3 4/4/4 
f 5/5/5 6/6/6 7/7/7 8/8/8 
f 9/9/9 10/10/10 11/11/3 12/12/4 
f 13/13/11 14/14/12 15/15/13 16/16/14 
s off
f 17/17/15 18/18/16 19/19/3 20/20/17 
f 21/21/18 22/22/19 23/23/20 24/24/21 
f 25/25/22 26/26/22 8/27/8 13/28/11 
f 26/26/22 27/29/23 1/30/1 5/31/5 
f 27/32/23 28/33/24 2/34/2 1/35/1 
f 25/25/22 16/36/14 29/37/25 
f 30/38/26 31/39/10 19/40/3 32/41/4 
f 12/12/4 11/11/3 14/14/12 13/13/11 
f 31/39/10 30/38/26 16/16/14 15/15/13 
f 4/4/4 3/3/3 6/6/6 5/5/5 
f 10/10/10 9/9/9 8/8/8 7/7/7 
f 33/42/27 32/43/4 19/19/3 18/18/16 
f 17/17/15 20/20/17 34/44/28 35/45/29 
f 18/46/16 17/47/15 24/24/21 23/23/20 
f 17/48/15 35/49/29 21/21/18 24/24/21 
f 35/50/29 33/51/27 22/22/19 21/21/18 
f 33/52/27 18/53/16 23/23/20 22/22/19 
f 34/54/28 20/55/17 36/56/30 29/57/25 
f 29/57/25 36/56/30 37/58/31 38/59/32 
f 27/60/23 26/61/22 39/62/22 40/63/22 
f 26/61/22 25/64/22 41/65/22 39/62/22 
f 25/64/22 29/66/25 38/67/32 41/65/22 
f 33/42/27 35/45/29 34/44/28 32/43/4 
f 1/30/1 4/68/4 5/31/5 
f 8/27/8 9/69/9 12/70/4 13/28/11 
f 8/27/8 26/26/22 5/31/5 
f 16/36/14 25/25/22 13/28/11 
f 2/34/2 28/33/24 42/34/33 
f 16/36/14 32/71/4 34/72/28 29/37/25 
f 16/73/14 30/73/26 32/73/4 
# 28 polygons - 6 triangles

