# 3ds Max Wavefront OBJ Exporter v0.99 - (c)2007 guruware
# File Created: 19.04.2023 12:48:28

mtllib Stone_Wall_slim_top.mtl

#
# object Stone_Wall_slim_top
#

v  -63.5228 35.2313 8.4585
v  -55.6804 35.2313 8.4585
v  -55.6804 35.2313 0.6160
v  -63.5228 35.2313 0.6160
v  -54.6804 29.3606 9.4585
v  -44.8379 29.3606 9.4585
v  -44.8379 29.3606 -0.3840
v  -54.6804 29.3606 -0.3840
v  -43.8379 35.2313 8.4585
v  -35.9954 35.2313 8.4585
v  -35.9954 35.2313 0.6160
v  -43.8379 35.2313 0.6160
v  -34.9954 29.3606 9.4585
v  -25.1528 29.3606 9.4585
v  -25.1528 29.3606 -0.3840
v  -34.9954 29.3606 -0.3840
v  -24.1528 35.2313 8.4585
v  -16.3104 35.2313 8.4585
v  -16.3104 35.2313 0.6160
v  -24.1528 35.2313 0.6160
v  -64.5228 -0.1670 9.4585
v  -54.6804 -0.1670 9.4585
v  -64.5228 29.3606 9.4585
v  -44.8379 -0.1670 9.4585
v  -34.9954 -0.1670 9.4585
v  -25.1528 -0.1670 9.4585
v  -15.3104 -0.1670 9.4585
v  -15.3104 29.3606 9.4585
v  -15.3104 -0.1670 -0.3840
v  -25.1528 -0.1670 -0.3840
v  -15.3104 29.3606 -0.3840
v  -34.9954 -0.1670 -0.3840
v  -44.8379 -0.1670 -0.3840
v  -54.6804 -0.1670 -0.3840
v  -64.5228 -0.1670 -0.3840
v  -64.5228 29.3606 -0.3840
v  -69.2826 29.3606 -0.3636
v  -69.2826 29.3606 9.4789
v  -69.2826 -0.1670 9.4789
v  -69.2826 -0.1670 -0.3636
v  -10.0980 29.3606 9.4585
v  -10.0980 29.3606 -0.3840
v  -10.0980 -0.1670 9.4585
v  -10.0980 -0.1670 -0.3840
# 44 vertices

vn -0.5283 0.6646 0.5283
vn 0.5283 0.6646 0.5283
vn 0.5283 0.6646 -0.5283
vn -0.5283 0.6646 -0.5283
vn 0.2686 0.3962 0.8780
vn -0.2686 0.3962 0.8780
vn -0.2686 0.3962 -0.8780
vn 0.2686 0.3962 -0.8780
vn 0.0021 0.0000 1.0000
vn 0.0000 0.0000 1.0000
vn -0.2673 0.3971 0.8780
vn 0.0000 0.0000 -1.0000
vn -0.0021 0.0000 -1.0000
vn -0.2699 0.3954 -0.8780
vn -0.0030 0.7081 -0.7061
vn 0.0030 0.7061 0.7081
vn 0.0043 0.0000 1.0000
vn -0.0043 0.0000 -1.0000
vn 0.0000 0.7071 0.7071
vn 0.0000 0.7071 -0.7071
# 20 vertex normals

vt 0.1357 0.0310 0.0000
vt 0.2204 0.0310 0.0000
vt 0.2204 0.1157 0.0000
vt 0.1357 0.1157 0.0000
vt 0.2847 0.0202 0.0000
vt 0.3909 0.0202 0.0000
vt 0.3909 0.1265 0.0000
vt 0.2847 0.1265 0.0000
vt 0.4552 0.0310 0.0000
vt 0.5399 0.0310 0.0000
vt 0.5399 0.1157 0.0000
vt 0.4552 0.1157 0.0000
vt 0.6042 0.0202 0.0000
vt 0.7105 0.0202 0.0000
vt 0.7105 0.1265 0.0000
vt 0.6042 0.1265 0.0000
vt 0.7748 0.0310 0.0000
vt 0.8594 0.0310 0.0000
vt 0.8594 0.1157 0.0000
vt 0.7748 0.1157 0.0000
vt 0.0870 0.1491 0.0000
vt 0.1933 0.1491 0.0000
vt 0.1933 0.4679 0.0000
vt 0.0870 0.4679 0.0000
vt 0.2996 0.1491 0.0000
vt 0.2996 0.4679 0.0000
vt 0.4058 0.1491 0.0000
vt 0.4058 0.4679 0.0000
vt 0.5121 0.1491 0.0000
vt 0.5121 0.4679 0.0000
vt 0.6184 0.1491 0.0000
vt 0.6184 0.4679 0.0000
vt 0.0919 0.4894 0.0000
vt 0.1982 0.4894 0.0000
vt 0.1982 0.8082 0.0000
vt 0.0919 0.8082 0.0000
vt 0.3045 0.4894 0.0000
vt 0.3045 0.8082 0.0000
vt 0.4107 0.4894 0.0000
vt 0.4107 0.8082 0.0000
vt 0.5170 0.4894 0.0000
vt 0.5170 0.8082 0.0000
vt 0.6233 0.4894 0.0000
vt 0.6233 0.8082 0.0000
vt 0.7046 0.2351 0.0000
vt 0.8108 0.2351 0.0000
vt 0.8000 0.2994 0.0000
vt 0.7154 0.2994 0.0000
vt 0.4157 0.9684 0.0000
vt 0.3095 0.9684 0.0000
vt 0.3203 0.9041 0.0000
vt 0.4049 0.9041 0.0000
vt 0.0714 0.1265 0.0000
vt 0.0714 0.0202 0.0000
vt 0.7046 0.1491 0.0000
vt 0.8108 0.1491 0.0000
vt 0.8000 0.2134 0.0000
vt 0.7154 0.2134 0.0000
vt 0.2788 0.9684 0.0000
vt 0.1726 0.9684 0.0000
vt 0.1834 0.9041 0.0000
vt 0.2680 0.9041 0.0000
vt 0.8415 0.1491 0.0000
vt 0.9477 0.1491 0.0000
vt 0.9370 0.2134 0.0000
vt 0.8523 0.2134 0.0000
vt 0.9237 0.0202 0.0000
vt 0.9237 0.1265 0.0000
vt 0.1419 0.9684 0.0000
vt 0.0356 0.9684 0.0000
vt 0.0464 0.9041 0.0000
vt 0.1311 0.9041 0.0000
vt 0.0200 0.1263 0.0000
vt 0.0200 0.0200 0.0000
vt 0.0356 0.4679 0.0000
vt 0.0356 0.1491 0.0000
vt 0.6747 0.4894 0.0000
vt 0.6747 0.8082 0.0000
vt 0.9800 0.0202 0.0000
vt 0.9800 0.1265 0.0000
vt 0.6747 0.1491 0.0000
vt 0.6747 0.4679 0.0000
vt 0.0356 0.8082 0.0000
vt 0.0356 0.4894 0.0000
# 84 texture coords

o Stone_Wall_slim_top
g Stone_Wall_slim_top
usemtl 01___Default
s 4
f 1/1/1 2/2/2 3/3/3 4/4/4 
f 5/5/5 6/6/6 7/7/7 8/8/8 
f 9/9/1 10/10/2 11/11/3 12/12/4 
f 13/13/5 14/14/6 15/15/7 16/16/8 
f 17/17/1 18/18/2 19/19/3 20/20/4 
s 8
f 21/21/9 22/22/10 5/23/5 23/24/11 
f 22/22/10 24/25/10 6/26/6 5/23/5 
f 24/25/10 25/27/10 13/28/5 6/26/6 
f 25/27/10 26/29/10 14/30/6 13/28/5 
f 26/29/10 27/31/10 28/32/5 14/30/6 
s 32
f 29/33/12 30/34/12 15/35/7 31/36/8 
f 30/34/12 32/37/12 16/38/8 15/35/7 
f 32/37/12 33/39/12 7/40/7 16/38/8 
f 33/39/12 34/41/12 8/42/8 7/40/7 
f 34/41/12 35/43/13 36/44/14 8/42/8 
s off
f 23/45/11 5/46/5 2/47/2 1/48/1 
f 5/5/5 8/8/8 3/3/3 2/2/2 
f 8/49/8 36/50/14 4/51/4 3/52/3 
f 36/53/14 23/54/11 1/1/1 4/4/4 
f 7/7/7 6/6/6 9/9/1 12/12/4 
f 6/55/6 13/56/5 10/57/2 9/58/1 
f 13/13/5 16/16/8 11/11/3 10/10/2 
f 16/59/8 7/60/7 12/61/4 11/62/3 
f 15/15/7 14/14/6 17/17/1 20/20/4 
f 14/63/6 28/64/5 18/65/2 17/66/1 
f 28/67/5 31/68/8 19/19/3 18/18/2 
f 31/69/8 15/70/7 20/71/4 19/72/3 
f 23/54/11 36/53/14 37/73/15 38/74/16 
f 21/21/9 23/24/11 38/75/16 39/76/17 
f 36/44/14 35/43/13 40/77/18 37/78/15 
f 31/68/8 28/67/5 41/79/19 42/80/20 
f 28/32/5 27/31/10 43/81/10 41/82/19 
f 29/33/12 31/36/8 42/83/20 44/84/12 
# 33 polygons

