# 3ds Max Wavefront OBJ Exporter v0.99 - (c)2007 guruware
# File Created: 19.04.2023 12:48:27

mtllib Stone_Wall_big.mtl

#
# object Stone_Wall_big
#

v  0.1077 -0.0000 -0.0000
v  -19.7675 -0.0000 -0.0000
v  -19.7675 3.2808 -0.0000
v  0.1077 3.2808 -0.0000
v  -39.5304 -0.0000 -0.0000
v  -39.5304 3.2808 -0.0000
v  0.1077 3.2808 0.4116
v  -19.7675 3.2808 0.3937
v  -19.7675 4.3234 0.3937
v  0.1077 4.2765 0.4429
v  -39.5327 3.3066 0.4183
v  -39.5376 4.3035 0.4183
v  0.1077 4.3234 -0.0000
v  -19.7675 4.3234 -0.0000
v  -19.7675 8.9497 -0.0000
v  0.1077 8.9497 -0.0000
v  -29.6481 8.9469 -0.0076
v  0.1077 8.9497 0.4429
v  -19.7675 8.9497 0.3937
v  -19.7675 9.8658 0.3937
v  0.1077 9.8200 0.4921
v  -29.6506 8.9441 0.4060
v  -34.5896 9.8349 0.4306
v  -29.6489 9.8452 0.4183
v  0.1077 9.8658 -0.0000
v  -19.7675 9.8658 -0.0000
v  -19.6631 28.2126 -0.0000
v  0.1077 40.7783 -0.0000
v  -29.6473 9.8658 -0.0000
v  -29.5962 28.2126 -0.0000
v  -39.5282 4.3101 -0.0203
v  0.1077 40.7783 14.1999
v  -19.7521 40.7783 14.1999
v  -19.7509 12.8220 14.1999
v  0.1077 12.6717 14.1999
v  -29.6412 40.7783 14.1999
v  -29.6406 12.8220 14.1999
v  -19.6140 40.7783 -0.0000
v  -29.5721 40.7783 -0.0000
v  -39.5304 40.7783 -0.0000
v  -39.5304 40.7783 14.1999
v  -39.5304 12.8220 14.1999
v  -39.5271 9.8658 -0.0000
v  -39.5304 9.8246 0.4429
v  -39.5338 8.9385 0.4183
v  -39.5287 8.9441 -0.0152
v  -29.5978 31.7987 -7.8741
v  -29.5721 53.6010 -7.8619
v  -19.6140 53.6010 -7.8978
v  -19.6647 31.7987 -7.8741
v  -29.6412 53.6010 14.1999
v  -19.7521 53.6010 14.1999
# 52 vertices

vn 0.0792 0.0000 -0.9969
vn 0.0000 0.0000 -1.0000
vn 0.0000 0.7071 -0.7071
vn 0.5774 0.5774 -0.5774
vn 0.0000 0.6863 -0.7274
vn 0.5401 0.6042 -0.5859
vn 0.0003 0.7075 -0.7067
vn -0.0000 -0.7079 -0.7063
vn 0.5372 -0.5533 -0.6366
vn -0.0000 0.6822 -0.7312
vn -0.0002 -0.6975 -0.7166
vn 0.5831 -0.5434 -0.6040
vn 0.0005 -0.7071 -0.7071
vn 0.0002 0.7072 -0.7070
vn 0.0005 0.7097 -0.7045
vn 0.5680 0.5977 -0.5657
vn 0.0002 0.7075 -0.7068
vn 0.0008 -0.7084 -0.7058
vn 0.0023 -0.6507 -0.7593
vn -0.0017 0.7144 -0.6997
vn -0.0011 -0.6763 -0.7366
vn -0.0004 -0.6845 -0.7290
vn 0.0000 -0.6735 -0.7391
vn 0.0000 -0.7071 -0.7071
vn 0.2018 -0.2530 -0.9462
vn 0.0000 -0.6895 -0.7243
vn -0.2017 -0.2519 -0.9465
vn 0.0011 -0.7060 -0.7082
vn 0.0000 0.7071 0.7071
vn 0.3009 0.2990 0.9056
vn 0.0000 0.0000 1.0000
vn -0.3019 0.3028 0.9040
vn 0.9039 0.3037 -0.3013
vn -0.9048 0.3004 -0.3017
vn 0.0000 -0.6751 -0.7377
vn -0.0005 -0.6596 -0.7516
vn -0.0013 0.7194 -0.6946
vn 0.0003 0.7145 -0.6996
vn -0.6037 -0.4310 -0.6707
vn -0.5777 0.5777 -0.5766
vn 0.5776 0.5768 -0.5777
vn 0.6023 -0.4327 -0.6709
vn -0.5783 0.5772 0.5765
vn 0.5754 0.5777 0.5790
# 44 vertex normals

vt 0.7952 0.0200 0.0000
vt 0.7952 0.2486 0.0000
vt 0.7575 0.2486 0.0000
vt 0.7575 0.0200 0.0000
vt 0.7952 0.4758 0.0000
vt 0.7575 0.4758 0.0000
vt 0.8917 0.0200 0.0000
vt 0.8919 0.2486 0.0000
vt 0.8799 0.2486 0.0000
vt 0.8804 0.0200 0.0000
vt 0.8916 0.4759 0.0000
vt 0.8801 0.4759 0.0000
vt 0.9800 0.0202 0.0000
vt 0.9790 0.2488 0.0000
vt 0.9258 0.2486 0.0000
vt 0.9268 0.0200 0.0000
vt 0.9253 0.3622 0.0000
vt 0.8405 0.0200 0.0000
vt 0.8407 0.2486 0.0000
vt 0.8300 0.2486 0.0000
vt 0.8308 0.0200 0.0000
vt 0.8406 0.3622 0.0000
vt 0.8303 0.4190 0.0000
vt 0.8302 0.3622 0.0000
vt 0.1557 0.9689 0.0000
vt 0.1588 0.7404 0.0000
vt 0.3697 0.7444 0.0000
vt 0.5112 0.9737 0.0000
vt 0.1603 0.6268 0.0000
vt 0.3713 0.6302 0.0000
vt 0.8454 0.0200 0.0000
vt 0.8453 0.2486 0.0000
vt 0.8254 0.2486 0.0000
vt 0.8253 0.0200 0.0000
vt 0.8964 0.0200 0.0000
vt 0.8964 0.2486 0.0000
vt 0.8964 0.4758 0.0000
vt 0.8751 0.4758 0.0000
vt 0.8753 0.2486 0.0000
vt 0.8753 0.0200 0.0000
vt 0.4846 0.0220 0.0000
vt 0.4832 0.2504 0.0000
vt 0.1617 0.2484 0.0000
vt 0.1614 0.0200 0.0000
vt 0.4825 0.3641 0.0000
vt 0.1610 0.3621 0.0000
vt 0.6465 0.2498 0.0000
vt 0.6479 0.0231 0.0000
vt 0.6448 0.2553 0.0000
vt 0.6547 0.4183 0.0000
vt 0.5403 0.4246 0.0000
vt 0.5312 0.2616 0.0000
vt 0.4943 0.3774 0.0000
vt 0.4953 0.4151 0.0000
vt 0.4905 0.4153 0.0000
vt 0.4905 0.2869 0.0000
vt 0.4956 0.2875 0.0000
vt 0.4956 0.3407 0.0000
vt 0.4905 0.3407 0.0000
vt 0.4817 0.4779 0.0000
vt 0.1603 0.4758 0.0000
vt 0.1619 0.5131 0.0000
vt 0.5173 0.5179 0.0000
vt 0.8254 0.3622 0.0000
vt 0.8305 0.4758 0.0000
vt 0.8254 0.4758 0.0000
vt 0.8406 0.4759 0.0000
vt 0.8454 0.3622 0.0000
vt 0.8455 0.4758 0.0000
vt 0.1352 0.1195 0.0000
vt 0.1345 0.3704 0.0000
vt 0.0200 0.3701 0.0000
vt 0.0210 0.1194 0.0000
vt 0.1353 0.6241 0.0000
vt 0.0216 0.6241 0.0000
vt 0.6968 0.7077 0.0000
vt 0.6979 0.8710 0.0000
vt 0.5511 0.9628 0.0000
vt 0.5493 0.7087 0.0000
vt 0.8424 0.8700 0.0000
vt 0.8018 0.9608 0.0000
vt 0.0210 0.0200 0.0000
vt 0.1352 0.0200 0.0000
vt 0.7327 0.8419 0.0000
vt 0.7317 0.6974 0.0000
vt 0.8211 0.5493 0.0000
vt 0.8230 0.8001 0.0000
vt 0.5684 0.6985 0.0000
vt 0.5674 0.5510 0.0000
vt 0.9700 0.6604 0.0000
vt 0.8565 0.6669 0.0000
vt 0.8479 0.5197 0.0000
vt 0.9615 0.5131 0.0000
vt 0.5142 0.7469 0.0000
vt 0.5158 0.6324 0.0000
vt 0.9781 0.4760 0.0000
vt 0.9249 0.4758 0.0000
# 97 texture coords

o Stone_Wall_big
g Stone_Wall_big
usemtl 01___Default
s 32
f 1/1/1 2/2/2 3/3/3 4/4/4 
f 2/2/2 5/5/2 6/6/5 3/3/3 
f 7/7/6 8/8/7 9/9/8 10/10/9 
f 8/8/7 11/11/10 12/12/11 9/9/8 
f 13/13/12 14/14/13 15/15/14 16/16/4 
f 14/14/13 17/17/15 15/15/14 
f 18/18/16 19/19/17 20/20/18 21/21/19 
f 22/22/20 23/23/21 24/24/22 
s off
f 25/25/23 26/26/24 27/27/25 28/28/3 
f 26/26/24 29/29/26 30/30/27 27/27/25 
f 16/31/4 15/32/14 19/19/17 18/18/16 
f 26/33/24 25/34/23 21/21/19 20/20/18 
f 4/35/4 3/36/3 8/8/7 7/7/6 
f 3/36/3 6/37/5 11/11/10 8/8/7 
f 31/38/28 14/39/13 9/9/8 12/12/11 
f 14/39/13 13/40/12 10/10/9 9/9/8 
f 32/41/29 33/42/30 34/43/31 35/44/31 
f 33/42/30 36/45/32 37/46/31 34/43/31 
f 38/47/33 33/42/30 32/41/29 28/48/3 
f 36/49/32 39/50/34 40/51/3 41/52/29 
f 1/53/1 4/54/4 7/55/6 
f 10/56/9 13/57/12 16/58/4 18/59/16 
f 36/45/32 41/60/29 42/61/31 37/46/31 
f 29/29/26 43/62/35 40/63/3 30/30/27 
f 29/64/26 26/33/24 20/20/18 24/24/22 
f 24/24/22 23/23/21 44/65/36 43/66/35 29/64/26 
s 32
f 22/22/20 45/67/37 44/65/36 23/23/21 
f 24/24/22 20/20/18 19/19/17 22/22/20 
s off
f 17/68/15 46/69/38 45/67/37 22/22/20 
f 22/22/20 19/19/17 15/32/14 17/68/15 
f 47/70/39 48/71/40 49/72/41 50/73/42 
f 49/72/41 48/71/40 51/74/43 52/75/44 
f 33/76/30 38/77/33 49/78/41 52/79/44 
f 38/77/33 27/80/25 50/81/42 49/78/41 
f 27/82/25 30/83/27 47/70/39 50/73/42 
f 30/84/27 39/85/34 48/86/40 47/87/39 
f 39/85/34 36/88/32 51/89/43 48/86/40 
f 36/90/32 33/91/30 52/92/44 51/93/43 
f 27/27/25 38/94/33 28/28/3 
f 40/63/3 39/95/34 30/30/27 
s 32
f 14/14/13 31/96/28 17/17/15 
f 31/96/28 46/97/38 17/17/15 
# 35 polygons - 7 triangles

