# 3ds Max Wavefront OBJ Exporter v0.99 - (c)2007 guruware
# File Created: 19.04.2023 12:48:17

mtllib StoneWall.mtl

#
# object StoneWall
#

v  -26.2468 -0.0000 0.0000
v  -26.2468 20.7995 -0.0050
v  -13.1234 20.7995 -0.0050
v  0.0000 20.7995 0.0000
v  0.0000 -0.0000 0.0000
v  -26.2468 78.7402 0.0050
v  -13.1234 78.7402 0.0000
v  -13.1234 66.1043 -0.0050
v  -26.2468 66.1043 -0.0050
v  -39.3701 66.1043 -0.0050
v  -39.3701 78.7402 0.0000
v  -26.2468 -0.0000 0.8190
v  -27.1654 -0.0000 0.8190
v  -27.1654 20.7995 0.8190
v  -26.2468 22.0995 0.8190
v  -26.2468 20.7995 0.8190
v  0.0000 39.3701 0.8190
v  -25.3281 39.3701 0.8190
v  -26.2468 39.3701 0.8190
v  -26.2468 41.1749 0.8190
v  -8.2294 41.1779 0.8188
v  -7.5105 41.1749 0.8190
v  0.0000 41.1749 0.8190
v  -39.3701 39.3701 0.8190
v  -39.3701 41.1749 0.8200
v  -26.7068 41.1749 0.8200
v  0.0000 65.1533 0.8190
v  -7.5759 65.1533 0.8190
v  -26.2468 65.1533 0.8157
v  -39.3701 65.1533 0.8099
v  -39.3701 66.1043 0.8190
v  -26.2468 66.1043 0.8190
v  -13.1234 66.1043 0.8190
v  0.0000 66.1043 0.8190
v  -39.3701 22.0995 -0.0050
v  -39.3701 39.3701 0.0000
v  -26.2468 39.3701 -0.0050
v  -26.2468 22.0995 -0.0050
v  -27.1654 -0.0000 -0.0050
v  -39.3701 -0.0000 0.0000
v  -39.3701 20.7995 0.0000
v  -27.1654 20.7995 -0.0050
v  -7.5759 41.1749 -0.0050
v  -7.5759 65.1533 -0.0050
v  0.0000 65.1533 0.0000
v  0.0000 41.1749 -0.0050
v  -26.2468 41.1749 -0.0050
v  -26.2468 65.1533 -0.0050
v  -8.2294 65.1533 -0.0050
v  -8.2294 41.1749 -0.0050
v  -39.3701 41.1749 -0.0050
v  -39.3701 65.1533 0.0000
v  -26.7061 65.1533 -0.0050
v  -26.7061 41.1749 -0.0050
v  -13.1234 78.7402 0.8190
v  -12.6641 78.7402 0.8190
v  -12.6641 66.1043 0.8190
v  -39.3701 20.7995 0.8190
v  -39.3701 22.0995 0.8190
v  -25.3281 39.3701 -0.0050
v  -25.3281 22.0995 -0.0050
v  -25.3281 22.0995 0.8190
v  -13.0717 20.7971 0.8174
v  0.0000 39.3701 0.0000
v  -8.2294 65.1533 0.8157
v  -26.7061 65.1533 0.8074
v  -12.6641 78.7402 -0.0050
v  0.0000 78.7402 0.0000
v  0.0000 66.1043 -0.0050
v  -12.6641 66.1043 -0.0050
v  0.0000 22.0973 -0.0050
v  0.0516 20.7972 0.8174
v  0.0516 22.0973 0.8174
v  0.0000 66.1043 0.8254
v  -12.6641 66.1043 0.8254
# 75 vertices

vn -0.7071 -0.0002 -0.7071
vn -0.5774 0.5773 -0.5774
vn -0.0002 -0.0015 1.0000
vn 0.0003 0.7220 -0.6919
vn 0.0000 0.0000 -1.0000
vn 0.0000 1.0000 -0.0000
vn 0.7070 0.0003 -0.7072
vn 0.5773 -0.5772 -0.5775
vn 0.0000 -0.7069 -0.7073
vn 0.0000 -0.7070 -0.7072
vn 0.0004 0.0004 -1.0000
vn -0.7071 0.0000 -0.7071
vn 0.7071 0.0000 -0.7071
vn 0.3015 0.3015 -0.9045
vn 0.3015 -0.3015 -0.9045
vn -0.3015 0.3015 -0.9045
vn 0.0000 0.7071 -0.7071
vn -0.3026 -0.3014 -0.9042
vn 0.2983 -0.3466 -0.8893
vn -0.5816 -0.5184 0.6269
vn 0.0000 -0.7071 -0.7071
vn 0.0000 0.7073 -0.7069
vn 0.5771 0.5770 -0.5779
vn -0.5746 -0.5790 -0.5785
vn -0.5704 -0.5808 -0.5808
vn 0.0003 0.7106 -0.7036
vn 0.0000 -0.7038 -0.7104
vn 0.0001 -0.7060 -0.7082
vn 0.3017 -0.2999 -0.9050
vn -0.0003 0.7074 -0.7068
vn 0.5772 0.5773 -0.5775
vn 0.5774 -0.5774 -0.5774
vn 0.7070 0.0000 -0.7073
vn -0.0004 0.0000 -1.0000
vn -0.0003 0.7072 -0.7070
vn -0.6019 -0.5733 -0.5560
vn -0.5772 0.5774 -0.5775
vn 0.0005 0.7073 -0.7069
vn -0.5774 -0.5774 -0.5774
vn -0.5774 0.5774 -0.5774
vn 0.5774 0.5774 -0.5774
vn 0.5772 -0.5785 -0.5764
vn -0.0003 0.7073 -0.7070
vn 0.5777 -0.5773 -0.5771
vn -0.5773 0.5774 -0.5774
vn -0.5774 -0.5773 -0.5773
vn -0.3016 -0.3015 -0.9045
vn 0.0000 0.8793 -0.4762
vn 0.0001 0.7072 -0.7070
vn 0.5793 0.5763 -0.5764
vn 0.5845 0.5736 -0.5739
vn -0.7070 0.0000 -0.7072
vn -0.0001 -0.7208 -0.6932
vn -0.0000 0.6934 -0.7205
vn -0.0001 -0.6926 -0.7213
vn 0.0000 -1.0000 -0.0000
# 56 vertex normals

vt 0.6667 0.0000 0.0000
vt 0.6667 0.2500 0.0000
vt 0.3333 0.2500 0.0000
vt 0.0000 0.2500 0.0000
vt -0.0000 0.5000 0.0000
vt 0.3333 0.0000 0.0000
vt 0.5000 0.5000 0.0000
vt 0.3333 0.7675 0.0000
vt 0.6667 0.7675 0.0000
vt 1.0000 0.7675 0.0000
vt 0.0000 0.5000 0.0000
vt 0.6900 0.0000 0.0000
vt 0.6900 0.2500 0.0000
vt 0.6667 0.2675 0.0000
vt 0.6433 0.5000 0.0000
vt 0.6667 0.5000 0.0000
vt 0.6667 0.5175 0.0000
vt 0.3461 0.5175 0.0000
vt 0.3333 0.5175 0.0000
vt 0.0000 0.5175 0.0000
vt 1.0000 0.5000 0.0000
vt 1.0000 0.5175 0.0000
vt 0.6784 0.5175 0.0000
vt 0.0000 0.7500 0.0000
vt 0.3333 0.7500 0.0000
vt 0.6667 0.7500 0.0000
vt 1.0000 0.7500 0.0000
vt 0.0000 0.7675 0.0000
vt 1.0000 0.2675 0.0000
vt 1.0000 0.0000 0.0000
vt 1.0000 0.2500 0.0000
vt 0.3450 0.7500 0.0000
vt 0.3450 0.5175 0.0000
vt 0.6783 0.7500 0.0000
vt 0.6783 0.5175 0.0000
vt 0.3333 1.0000 0.0000
vt 0.3217 1.0000 0.0000
vt 0.3217 0.7675 0.0000
vt 0.6433 0.2675 0.0000
vt 0.0000 1.0000 0.0000
vt 0.0000 0.2675 0.0000
vt 0.3333 0.2675 0.0000
vt 0.6680 0.2675 0.0000
# 43 texture coords

o StoneWall
g StoneWall
usemtl wire_196088225
s 34
f 1/1/1 2/2/2 3/3/3 4/4/4 5/5/5 
s 36
f 6/6/6 7/7/7 8/8/8 9/9/9 10/10/10 11/11/11 
s 32
f 12/1/12 13/12/13 14/13/14 15/14/15 16/2/16 
f 17/11/17 18/15/16 19/16/14 20/17/18 21/18/19 22/19/20 23/20/21 
f 19/16/14 24/21/22 25/22/9 26/23/23 20/17/18 
f 27/24/17 28/25/24 29/26/25 30/27/26 31/10/27 32/9/28 33/8/29 34/28/5 
f 35/29/21 36/21/30 37/16/31 38/14/32 
f 39/12/33 40/30/34 41/31/35 42/13/31 
f 43/19/36 44/25/37 45/24/38 46/20/10 
f 47/17/39 48/26/40 49/32/41 50/33/42 
f 51/22/10 52/27/43 53/34/31 54/35/44 
f 33/8/29 55/36/13 56/37/12 57/38/12 
s off
f 2/2/2 1/1/1 12/1/12 16/2/16 
f 39/12/33 42/13/31 14/13/14 13/12/13 
f 42/13/31 41/31/35 58/31/17 14/13/14 
f 35/29/21 38/14/32 15/14/15 59/29/21 
f 38/14/32 37/16/31 19/16/14 15/14/15 
f 60/15/45 61/39/46 62/39/47 18/15/16 
f 3/3/3 2/2/2 16/2/16 63/3/48 
f 64/11/49 60/15/45 18/15/16 17/11/17 
f 37/16/31 36/21/30 24/21/22 19/16/14 
f 43/19/36 46/20/10 23/20/21 22/19/20 
f 45/24/38 44/25/37 28/25/24 27/24/17 
f 10/10/10 9/9/9 32/9/28 31/10/27 
f 9/9/9 8/8/8 33/8/29 32/9/28 
s 32
f 65/32/50 28/25/24 22/19/20 21/33/19 
f 66/34/51 29/26/25 20/17/18 26/35/23 
f 67/37/52 68/40/11 69/28/10 70/38/39 
f 61/39/46 60/15/45 64/11/49 71/41/53 
s off
f 8/8/8 7/7/7 55/36/13 33/8/29 
f 67/37/52 70/38/39 57/38/12 56/37/12 
f 4/4/4 3/3/3 63/3/48 72/4/54 
f 71/41/53 73/41/55 62/39/47 61/39/46 
f 44/25/37 43/19/36 22/19/20 28/25/24 
f 50/33/42 49/32/41 65/32/50 21/33/19 
f 48/26/40 47/17/39 20/17/18 29/26/25 
f 54/35/44 53/34/31 66/34/51 26/35/23 
s 32
f 14/13/14 58/31/17 59/29/21 15/14/15 
f 16/2/16 15/14/15 19/16/14 18/15/16 62/39/47 
f 73/41/55 72/41/54 63/42/48 16/43/16 62/39/47 
s off
f 50/33/42 21/33/19 20/17/18 47/17/39 
f 51/22/10 54/35/44 26/35/23 25/22/9 
f 49/32/41 48/26/40 29/26/25 65/32/50 
f 53/34/31 52/27/43 30/27/26 66/34/51 
f 70/38/39 69/28/10 74/28/56 75/38/56 
# 45 polygons

