# 3ds Max Wavefront OBJ Exporter v0.99 - (c)2007 guruware
# File Created: 19.04.2023 12:48:26

mtllib StoneWall_Conection.mtl

#
# object StoneWall_Conection
#

v  -1.1842 78.7402 0.0050
v  -0.0045 78.7402 0.0046
v  0.0050 66.1043 -0.0050
v  -19.3469 66.1043 -0.0050
v  -19.3469 78.7402 0.0000
v  -0.8190 39.3701 0.8190
v  -19.3469 39.3701 0.8190
v  -19.3469 41.1749 0.8200
v  -0.8190 41.1750 0.8190
v  -19.3469 22.0995 -0.0050
v  -19.3469 39.3701 0.0000
v  0.0050 39.3701 -0.0038
v  0.0050 22.0995 0.0495
v  0.0050 -0.0000 0.0132
v  -19.3469 -0.0000 0.0000
v  -19.3469 20.7995 0.0000
v  0.0050 20.7995 0.0342
v  -19.3469 41.1749 -0.0050
v  -19.3469 65.1533 0.0000
v  0.0050 65.1533 -0.0050
v  0.0050 41.1749 -0.0050
v  -19.3469 20.7995 0.8190
v  -0.8190 20.7995 0.8103
v  -0.8190 21.9926 0.8190
v  -19.3469 22.0995 0.8190
v  -0.8190 66.1043 0.8190
v  -19.3469 66.1043 0.8190
v  -19.3469 65.1533 0.8099
v  -0.8157 65.1533 0.8157
v  -0.0050 78.7402 1.1842
v  0.0000 78.7402 19.3477
v  0.0050 66.1043 19.3477
v  -0.8199 41.1749 19.3477
v  -0.8190 39.3701 19.3477
v  0.0050 22.0995 19.3477
v  0.0000 39.3701 19.3477
v  0.0000 20.7995 19.3477
v  0.0000 -0.0000 19.3477
v  0.0050 41.1749 19.3477
v  0.0000 65.1533 19.3477
v  -0.8190 20.7995 19.3477
v  -0.8190 22.0995 19.3477
v  -0.8190 66.1043 19.3477
v  -0.8099 65.1533 19.3477
# 44 vertices

vn 0.0000 1.0000 -0.0000
vn 0.7071 0.0011 -0.7071
vn 0.5775 -0.5770 -0.5775
vn 0.0000 -0.7070 -0.7072
vn 0.0003 0.0004 -1.0000
vn 0.3015 0.9045 -0.3015
vn 0.0000 0.7073 -0.7069
vn -0.0000 -0.7069 -0.7073
vn 0.3015 -0.9046 -0.3015
vn 0.0020 -0.7064 -0.7078
vn -0.0001 0.7072 -0.7070
vn 0.5772 0.5765 -0.5783
vn 0.5913 -0.5522 -0.5877
vn 0.7071 0.0007 -0.7071
vn 0.0007 0.0000 -1.0000
vn 0.0013 0.7067 -0.7075
vn 0.5780 0.5777 -0.5763
vn -0.0002 0.7073 -0.7070
vn 0.5773 0.5774 -0.5773
vn 0.5773 -0.5774 -0.5773
vn -0.0003 0.7070 -0.7072
vn 0.2995 0.9054 -0.3010
vn 0.3508 -0.8664 -0.3555
vn -0.0041 -0.7084 -0.7058
vn 0.3026 -0.9038 -0.3026
vn -0.0000 -0.7038 -0.7104
vn 0.0002 0.7106 -0.7036
vn 0.3005 0.9052 -0.3005
vn 1.0000 0.0004 -0.0003
vn 0.7072 -0.7070 -0.0000
vn 0.7073 -0.7069 0.0000
vn 0.7069 0.7073 -0.0000
vn 0.7071 -0.7071 -0.0000
vn 0.7068 0.7074 0.0002
vn 0.7070 0.7073 0.0002
vn 1.0000 0.0000 0.0003
vn 0.7071 0.7071 -0.0000
vn 0.7058 -0.7084 0.0041
vn 0.7104 -0.7038 0.0000
vn 0.7036 0.7106 -0.0002
# 40 vertex normals

vt 0.2416 0.0209 0.0000
vt 0.2560 0.0209 0.0000
vt 0.2564 0.1750 0.0000
vt 0.0203 0.1755 0.0000
vt 0.0200 0.0214 0.0000
vt 0.0301 0.9246 0.0000
vt 0.2561 0.9246 0.0000
vt 0.2561 0.9466 0.0000
vt 0.0301 0.9466 0.0000
vt 0.4915 0.5116 0.0000
vt 0.4921 0.7223 0.0000
vt 0.2561 0.7230 0.0000
vt 0.2554 0.5123 0.0000
vt 0.5220 0.7260 0.0000
vt 0.7581 0.7260 0.0000
vt 0.7581 0.9798 0.0000
vt 0.5220 0.9798 0.0000
vt 0.4922 0.1974 0.0000
vt 0.4922 0.4899 0.0000
vt 0.2561 0.4899 0.0000
vt 0.2561 0.1974 0.0000
vt 0.0200 0.7449 0.0000
vt 0.2561 0.7445 0.0000
vt 0.2561 0.7543 0.0000
vt 0.0301 0.7546 0.0000
vt 0.2561 0.7797 0.0000
vt 0.0200 0.7791 0.0000
vt 0.0301 0.7695 0.0000
vt 0.2561 0.7698 0.0000
vt 0.0200 0.9145 0.0000
vt 0.2561 0.9146 0.0000
vt 0.7477 0.0664 0.0000
vt 0.5116 0.0664 0.0000
vt 0.5217 0.0564 0.0000
vt 0.7477 0.0564 0.0000
vt 0.2561 0.9567 0.0000
vt 0.0200 0.9567 0.0000
vt 0.5116 0.0348 0.0000
vt 0.7477 0.0348 0.0000
vt 0.7477 0.0447 0.0000
vt 0.5216 0.0448 0.0000
vt 0.2703 0.0208 0.0000
vt 0.4919 0.0200 0.0000
vt 0.4925 0.1741 0.0000
vt 0.0301 0.8838 0.0000
vt 0.0301 0.8618 0.0000
vt 0.2561 0.8618 0.0000
vt 0.2561 0.8838 0.0000
vt 0.0200 0.5123 0.0000
vt 0.0200 0.7230 0.0000
vt 0.2864 0.9800 0.0000
vt 0.2861 0.7263 0.0000
vt 0.0200 0.1974 0.0000
vt 0.0200 0.4899 0.0000
vt 0.5227 0.7065 0.0000
vt 0.5322 0.6965 0.0000
vt 0.7583 0.6965 0.0000
vt 0.7583 0.7065 0.0000
vt 0.7583 0.6706 0.0000
vt 0.7583 0.6806 0.0000
vt 0.5323 0.6819 0.0000
vt 0.5229 0.6718 0.0000
vt 0.0200 0.8938 0.0000
vt 0.2561 0.8938 0.0000
vt 0.2561 0.8000 0.0000
vt 0.2561 0.8100 0.0000
vt 0.0301 0.8102 0.0000
vt 0.0200 0.8002 0.0000
vt 0.2561 0.8517 0.0000
vt 0.0200 0.8517 0.0000
vt 0.0200 0.8319 0.0000
vt 0.0300 0.8219 0.0000
vt 0.2561 0.8216 0.0000
vt 0.2561 0.8315 0.0000
# 74 texture coords

o StoneWall_Conection
g StoneWall_Conection
usemtl 01___Default
s 36
f 1/1/1 2/2/2 3/3/3 4/4/4 5/5/5 
s 32
f 6/6/6 7/7/7 8/8/8 9/9/9 
f 10/10/10 11/11/11 12/12/12 13/13/13 
f 14/14/14 15/15/15 16/16/16 17/17/17 
f 18/18/4 19/19/18 20/20/19 21/21/20 
s off
f 17/22/17 16/23/16 22/24/21 23/25/22 
f 10/26/10 13/27/13 24/28/23 25/29/24 
f 12/30/12 11/31/11 7/7/7 6/6/6 
f 4/32/4 3/33/3 26/34/25 27/35/26 
s 32
f 23/25/22 22/24/21 25/29/24 24/28/23 
s off
f 18/36/4 21/37/20 9/9/9 8/8/8 
f 20/38/19 19/39/18 28/40/27 29/41/28 
s 32
f 29/41/28 28/40/27 27/35/26 26/34/25 
s 36
f 30/42/1 31/43/29 32/44/30 3/3/3 2/2/2 
s 32
f 6/45/6 9/46/9 33/47/31 34/48/32 
f 35/49/33 13/13/13 12/12/12 36/50/34 
f 14/14/14 17/17/17 37/51/35 38/52/36 
f 39/53/30 21/21/20 20/20/19 40/54/35 
s off
f 17/55/17 23/56/22 41/57/37 37/58/35 
f 35/59/33 42/60/38 24/61/23 13/62/13 
f 12/63/12 6/45/6 34/48/32 36/64/34 
f 32/65/30 43/66/39 26/67/25 3/68/3 
s 32
f 23/56/22 24/61/23 42/60/38 41/57/37 
s off
f 39/69/30 33/47/31 9/46/9 21/70/20 
f 20/71/19 29/72/28 44/73/40 40/74/35 
s 32
f 26/67/25 43/66/39 44/73/40 29/72/28 
# 26 polygons

