# 3ds Max Wavefront OBJ Exporter v0.99 - (c)2007 guruware
# File Created: 21.04.2023 17:43:02

mtllib StoneWall.mtl

#
# object StoneWall
#

v  -861.0110 78.7402 0.0000
v  -874.1345 66.1043 -0.0050
v  -887.2578 78.7402 0.0000
v  -874.1345 0.0000 0.8190
v  -875.0531 0.0000 0.8190
v  -875.0531 20.7995 0.8190
v  -874.1345 20.7995 0.8190
v  -847.8877 39.3701 0.8190
v  -861.0110 39.3701 0.8190
v  -855.3982 41.1749 0.8190
v  -847.8877 41.1749 0.8190
v  -874.1345 39.3701 0.8190
v  -874.5945 41.1749 0.8200
v  -874.1345 41.1749 0.8190
v  -887.2578 22.0995 -0.0050
v  -887.2578 39.3701 0.0000
v  -874.1345 39.3701 -0.0050
v  -874.1345 22.0995 -0.0050
v  -875.0531 0.0000 -0.0050
v  -887.2578 0.0000 0.0000
v  -887.2578 20.7995 0.0000
v  -875.0531 20.7995 -0.0050
v  -855.4636 41.1749 -0.0050
v  -855.4636 65.1533 -0.0050
v  -847.8877 65.1533 0.0000
v  -847.8877 41.1749 -0.0050
v  -874.1345 41.1749 -0.0050
v  -874.1345 65.1533 -0.0050
v  -861.9215 65.1533 -0.0050
v  -861.9215 41.1749 -0.0050
v  -887.2578 41.1749 -0.0050
v  -887.2578 65.1533 0.0000
v  -874.5938 65.1533 -0.0050
v  -874.5938 41.1749 -0.0050
v  -861.0110 66.1043 0.8190
v  -861.0110 78.7402 0.8190
v  -860.5518 78.7402 0.8190
v  -860.5518 66.1043 0.8222
v  -874.1345 20.7995 -0.0050
v  -874.1345 0.0000 0.0000
v  -887.2578 20.7995 0.8190
v  -874.1345 22.0995 0.8190
v  -887.2578 22.0995 0.8190
v  -873.2158 39.3701 -0.0050
v  -873.2158 22.0995 -0.0050
v  -873.2158 22.0995 0.8190
v  -873.2158 39.3701 0.8190
v  -861.0110 20.7995 -0.0050
v  -860.9594 20.7971 0.8174
v  -847.8877 39.3701 0.0000
v  -861.0110 39.3701 -0.0050
v  -887.2578 39.3701 0.8190
v  -855.4636 65.1533 0.8190
v  -847.8877 65.1533 0.8190
v  -887.2578 66.1043 -0.0050
v  -874.1345 66.1043 0.8190
v  -887.2578 66.1043 0.8190
v  -861.0110 66.1043 -0.0050
v  -856.1171 65.1533 0.8157
v  -856.1171 41.1779 0.8188
v  -874.5938 65.1533 0.8074
v  -874.1345 65.1533 0.8157
v  -860.5518 78.7402 -0.0050
v  -854.2197 78.7402 -0.0025
v  -854.2197 66.1043 -0.0050
v  -860.5518 66.1043 -0.0050
v  -861.0110 22.0995 -0.0050
v  -847.8877 22.0973 -0.0050
v  -847.8877 20.7995 0.0000
v  -847.8361 20.7972 0.8174
v  -861.0110 22.0995 0.8190
v  -856.1171 41.1749 -0.0050
v  -856.1171 65.1533 -0.0050
v  -860.5739 41.1764 0.8189
v  -860.5739 41.1749 -0.0050
v  -887.2578 41.1749 0.8200
v  -860.5739 65.1533 -0.0050
v  -860.5739 65.1533 0.8157
v  -887.2578 65.1533 0.8099
v  -854.2197 66.1043 0.8222
v  -847.8877 78.7402 0.0000
v  -847.8877 66.1043 -0.0050
v  -847.8877 66.1043 0.8222
v  -861.9215 41.1757 0.8189
v  -861.9215 65.1533 0.8157
v  -847.8361 22.0973 0.8174
v  -847.8877 0.0000 0.0000
v  -861.0110 0.0000 0.0000
# 88 vertices

vn 0.7072 0.0003 -0.7070
vn 0.0000 -0.7070 -0.7072
vn 0.0000 0.0004 -1.0000
vn -0.7071 -0.0000 -0.7071
vn 0.7071 0.0000 -0.7071
vn 0.3015 0.3015 -0.9045
vn -0.3015 0.3015 -0.9045
vn 0.0000 0.7071 -0.7071
vn -0.0000 0.7071 -0.7071
vn -0.3057 -0.3232 -0.8956
vn 0.0000 -0.7071 -0.7071
vn 0.3014 0.3016 -0.9045
vn 0.3004 -0.3019 -0.9048
vn -0.3026 -0.3014 -0.9042
vn -0.0003 0.7074 -0.7068
vn 0.5772 0.5773 -0.5775
vn 0.5774 -0.5774 -0.5774
vn 0.7070 0.0000 -0.7073
vn -0.0004 0.0000 -1.0000
vn -0.0003 0.7072 -0.7070
vn -0.6019 -0.5733 -0.5560
vn -0.5772 0.5774 -0.5775
vn 0.0005 0.7073 -0.7069
vn -0.5774 -0.5774 -0.5774
vn -0.5774 0.5774 -0.5774
vn 0.0000 -0.7074 -0.7068
vn -0.0003 0.7073 -0.7070
vn 0.5777 -0.5773 -0.5771
vn 0.3062 -0.3019 -0.9028
vn 0.7071 -0.0000 -0.7071
vn -0.7073 -0.0002 -0.7070
vn -0.2980 -0.2983 -0.9068
vn -0.5774 0.5773 -0.5774
vn -0.7071 -0.0002 -0.7071
vn 0.3015 -0.3015 -0.9045
vn -0.3015 -0.3015 -0.9045
vn 0.0001 0.7080 -0.7062
vn 0.0000 0.7086 -0.7056
vn 0.0003 0.7072 -0.7070
vn 0.0001 0.7071 -0.7071
vn 0.0000 0.7073 -0.7069
vn -0.2980 0.3000 -0.9062
vn 0.0000 0.7083 -0.7059
vn 0.0018 -0.7048 -0.7094
vn 0.0000 -0.7038 -0.7104
vn 0.5773 -0.5772 -0.5775
vn 0.3030 0.3042 -0.9031
vn 0.3027 -0.3023 -0.9039
vn 0.3095 0.3055 -0.9005
vn -0.2914 0.3044 -0.9069
vn -0.7070 0.0000 -0.7072
vn 0.0004 0.0002 -1.0000
vn -0.0001 -0.7071 -0.7071
vn -0.0001 -0.7208 -0.6931
vn 0.0003 0.7220 -0.6919
vn -0.0000 0.6934 -0.7205
vn -0.0001 -0.7067 -0.7075
vn 0.5772 -0.5785 -0.5764
vn 0.5774 0.5774 -0.5774
vn 0.0003 -0.7078 -0.7064
vn -0.0000 -0.7078 -0.7065
vn 0.0000 -0.7069 -0.7073
vn 0.0000 0.7095 -0.7047
vn -0.0001 0.7105 -0.7037
vn 0.0002 -0.7059 -0.7083
vn 0.0004 0.0004 -1.0000
vn 0.0000 -0.7059 -0.7083
vn 0.0002 -0.7074 -0.7069
vn -0.0002 -0.6926 -0.7213
vn 0.0000 0.0000 -1.0000
vn 0.0000 -0.0002 -1.0000
# 71 vertex normals

vt 0.2201 0.9775 23.9160
vt 0.0260 0.7933 0.0000
vt 0.2028 0.5923 0.0000
vt 0.6207 0.2820 -7.7791
vt 0.6341 0.2798 7.7791
vt 0.6828 0.5815 -7.7791
vt 0.6695 0.5837 7.7791
vt 0.0271 0.0052 -7.8868
vt 0.0271 0.1980 -7.8868
vt 0.0005 0.1156 7.8868
vt 0.0005 0.0052 7.8868
vt 0.0271 0.3908 7.8868
vt 0.0006 0.3976 7.8868
vt 0.0006 0.3908 7.8868
vt 0.6268 0.3914 0.0000
vt 0.6268 0.6451 0.0000
vt 0.4340 0.6451 0.0000
vt 0.4340 0.3914 0.0000
vt 0.4103 0.0573 0.0000
vt 0.5896 0.0573 0.0000
vt 0.5896 0.3629 0.0000
vt 0.4103 0.3629 0.0000
vt 0.7702 0.0220 0.0000
vt 0.7783 0.3742 0.0000
vt 0.6670 0.3768 0.0000
vt 0.6589 0.0246 0.0000
vt 0.9828 0.4009 0.0000
vt 0.9828 0.7531 0.0000
vt 0.8033 0.7531 0.0000
vt 0.8033 0.4009 0.0000
vt 0.9992 0.0227 0.0000
vt 0.9891 0.3748 0.0000
vt 0.8031 0.3695 0.0000
vt 0.8132 0.0173 0.0000
vt 0.5991 0.0573 7.7721
vt 0.6007 0.2429 -7.7721
vt 0.5940 0.2430 7.7721
vt 0.5923 0.0574 -7.7721
vt 0.3678 0.1120 0.0000
vt 0.0627 0.1273 0.0000
vt 0.0621 0.1153 0.0000
vt 0.3672 0.0999 0.0000
vt 0.3982 0.3629 0.0000
vt 0.3982 0.0573 0.0000
vt 0.5896 0.3750 0.0000
vt 0.4103 0.3750 0.0000
vt 0.4340 0.3793 0.0000
vt 0.6268 0.3793 0.0000
vt 0.4219 0.6451 0.0000
vt 0.4219 0.3914 0.0000
vt 0.5959 0.9860 0.0000
vt 0.5959 0.7323 0.0000
vt 0.6080 0.7323 0.0000
vt 0.6080 0.9860 0.0000
vt 0.3775 0.3046 0.0000
vt 0.3799 0.1114 0.0000
vt 0.3896 0.3047 0.0000
vt 0.2238 0.9861 0.0000
vt 0.4166 0.9860 0.0000
vt 0.4166 0.9981 0.0000
vt 0.2238 0.9981 0.0000
vt 0.6268 0.6572 0.0000
vt 0.4340 0.6572 0.0000
vt 0.6586 0.0125 0.0000
vt 0.7689 0.0100 0.0000
vt 0.7785 0.3863 0.0000
vt 0.6673 0.3888 0.0000
vt 0.0173 0.6007 0.0000
vt 0.0139 0.7938 0.0000
vt 0.0052 0.6012 -23.9160
vt 0.0346 0.9859 0.0000
vt 0.0225 0.9864 0.0000
vt 0.2137 0.7073 0.0000
vt 0.2136 0.6977 0.0000
vt 0.5658 0.6918 0.0000
vt 0.5659 0.7023 0.0000
vt 0.6923 0.5456 7.7994
vt 0.6857 0.5468 -7.7994
vt 0.6207 0.2006 7.7994
vt 0.6274 0.1994 -7.7994
vt 0.9867 0.9653 0.0000
vt 0.8937 0.9653 0.0000
vt 0.8937 0.7797 0.0000
vt 0.9867 0.7797 0.0000
vt 0.4166 0.7323 0.0000
vt 0.2238 0.7323 0.0000
vt 0.2206 0.9896 0.0000
vt 0.0352 0.9980 0.0000
vt 0.9989 0.7797 0.0000
vt 0.9988 0.9653 0.0000
vt 0.3872 0.4971 0.0000
vt 0.3992 0.4973 0.0000
vt 0.4166 0.7202 0.0000
vt 0.5959 0.7202 0.0000
vt 0.7823 0.0218 0.0000
vt 0.7904 0.3740 0.0000
vt 0.7181 0.4008 0.0000
vt 0.7181 0.7531 0.0000
vt 0.7060 0.7531 0.0000
vt 0.7060 0.4009 0.0000
vt 0.9949 0.4009 0.0000
vt 0.9948 0.7531 0.0000
vt 0.7912 0.3691 0.0000
vt 0.8011 0.0170 0.0000
vt 0.4473 0.0291 0.0000
vt 0.6243 0.0005 0.0000
vt 0.6274 0.0194 0.0000
vt 0.4370 0.0501 0.0000
vt 0.4340 0.0312 0.0000
vt 0.4237 0.0522 0.0000
vt 0.2467 0.0808 0.0000
vt 0.2429 0.0620 0.0000
vt 0.7181 0.3887 0.0000
vt 0.7835 0.3887 0.0000
vt 0.7835 0.4008 0.0000
vt 0.8135 0.0052 0.0000
vt 0.9995 0.0105 0.0000
vt 0.7835 0.7531 0.0000
vt 0.7835 0.7652 0.0000
vt 0.7181 0.7652 0.0000
vt 0.9888 0.3867 0.0000
vt 0.8028 0.3814 0.0000
vt 0.8937 0.7675 0.0000
vt 0.9867 0.7675 0.0000
vt 0.8007 0.9653 0.0000
vt 0.8007 0.7797 0.0000
vt 0.8007 0.7675 0.0000
vt 0.0743 0.4849 -0.3664
vt 0.0803 0.5777 0.3664
vt 0.0663 0.5786 -0.3664
vt 0.0591 0.4675 0.3664
vt 0.8033 0.3887 0.0000
vt 0.8033 0.7652 0.0000
vt 0.9828 0.3887 0.0000
vt 0.9828 0.7652 0.0000
vt 0.0543 0.3926 0.3664
vt 0.0530 0.3728 0.3664
vt 0.0678 0.3853 0.3664
vt 0.0682 0.3920 0.3664
vt 0.0585 0.4579 0.3664
vt 0.0414 0.1938 0.3664
vt 0.0553 0.1929 0.3664
vt 0.0409 0.1871 0.3664
vt 0.0289 0.0014 0.3664
vt 0.0429 0.0005 0.3664
vt 0.2230 0.7202 0.0000
vt 0.5959 0.9981 0.0000
vt 0.0820 0.5125 0.0000
vt 0.0723 0.3199 0.0000
vt 0.0005 0.1261 7.8868
vt 0.0005 0.1916 7.8868
vt 0.0005 0.2114 7.8868
vt 0.0271 0.3773 7.8868
vt 0.0271 0.5836 7.8868
vt 0.0006 0.5836 7.8868
vt 0.3444 0.5253 0.0000
vt 0.0907 0.5290 0.0000
vt 0.0905 0.5155 0.0000
vt 0.3442 0.5118 0.0000
vt 0.0556 0.1116 0.0000
vt 0.0526 0.0928 0.0000
# 161 texture coords

o StoneWall
g StoneWall
usemtl wire_196088225
s 36
f 1/1/1 2/2/2 3/3/3 
s 32
f 4/4/4 5/5/5 6/6/6 7/7/7 
f 8/8/8 9/9/9 10/10/10 11/11/11 
f 12/12/12 13/13/13 14/14/14 
f 15/15/11 16/16/15 17/17/16 18/18/17 
f 19/19/18 20/20/19 21/21/20 22/22/16 
f 23/23/21 24/24/22 25/25/23 26/26/2 
f 27/27/24 28/28/25 29/29/8 30/30/26 
f 31/31/2 32/32/27 33/33/16 34/34/28 
f 35/35/29 36/36/30 37/37/31 38/38/32 
s off
f 39/39/33 40/40/34 4/41/4 7/42/7 
f 19/19/18 22/22/16 6/43/6 5/44/5 
f 22/22/16 21/21/20 41/45/8 6/46/6 
f 15/15/11 18/18/17 42/47/35 43/48/11 
f 18/18/17 17/17/16 12/49/12 42/50/35 
f 44/51/25 45/52/24 46/53/36 47/54/7 
f 48/55/37 39/39/33 7/56/7 49/57/38 
f 50/58/39 51/59/40 9/60/9 8/61/8 
f 17/17/16 16/16/15 52/62/41 12/63/12 
f 23/23/21 26/26/2 11/64/11 10/65/10 
f 25/25/23 24/24/22 53/66/42 54/67/43 
f 55/68/2 2/2/2 56/69/44 57/70/45 
f 2/2/2 58/71/46 35/72/29 56/69/44 
s 32
f 59/73/47 53/74/42 10/75/10 60/76/48 
f 61/77/49 62/78/50 14/79/14 13/80/13 
f 63/81/51 64/82/52 65/83/2 66/84/24 
f 67/85/53 51/59/40 50/58/39 68/86/54 
s off
f 58/71/46 1/1/1 36/87/30 35/88/29 
f 63/81/51 66/84/24 38/89/32 37/90/31 
f 69/91/55 48/55/37 49/57/38 70/92/56 
f 67/85/53 71/93/57 46/94/36 45/52/24 
f 24/24/22 23/23/21 10/95/10 53/96/42 
f 72/97/58 73/98/59 59/99/47 60/100/48 
f 28/28/25 27/27/24 14/101/14 62/102/50 
f 34/34/28 33/33/16 61/103/49 13/104/13 
s 32
f 6/105/6 41/106/8 43/107/11 42/108/35 
f 7/109/7 42/108/35 46/110/36 
f 71/111/57 49/112/38 7/109/7 46/110/36 
s off
f 72/97/58 60/113/48 74/114/60 75/115/61 
f 31/31/2 34/34/28 13/116/13 76/117/62 
f 73/98/59 77/118/9 78/119/63 59/120/47 
f 33/33/16 32/32/27 79/121/64 61/122/49 
f 66/84/24 65/83/2 80/123/65 38/124/32 
s 36
f 2/2/2 55/68/2 3/3/3 
f 1/1/1 58/71/46 2/2/2 
s 32
f 64/82/52 81/125/66 82/126/2 65/83/2 
s off
f 65/83/2 82/126/2 83/127/67 80/123/65 
s 1
f 80/128/65 83/129/67 54/130/43 53/131/42 
s 32
f 77/118/9 73/98/59 72/97/58 75/115/61 
s off
f 74/114/60 84/132/68 30/30/26 75/115/61 
f 77/118/9 29/29/8 85/133/43 78/119/63 
s 32
f 29/29/8 77/118/9 75/115/61 30/30/26 
s off
f 84/132/68 14/134/14 27/27/24 30/30/26 
f 29/29/8 28/28/25 62/135/50 85/133/43 
s 1
f 78/136/63 85/137/43 35/138/29 38/139/32 
s 2
f 59/140/47 78/136/63 38/139/32 80/128/65 
s off
f 59/140/47 80/128/65 53/131/42 
s 2
f 85/137/43 62/141/50 56/142/44 35/138/29 
s 1
f 61/143/49 79/144/64 57/145/45 56/142/44 
s off
f 61/143/49 56/142/44 62/141/50 
f 67/85/53 68/86/54 86/146/69 71/93/57 
s 32
f 67/85/53 45/52/24 44/51/25 51/59/40 
s off
f 51/59/40 44/51/25 47/147/7 9/60/9 
s 34
f 48/55/37 69/91/55 87/148/70 88/149/71 
f 88/149/71 40/40/34 39/39/33 48/55/37 
s 32
f 9/9/9 60/150/48 10/10/10 
f 9/9/9 74/151/60 60/150/48 
f 9/9/9 84/152/68 74/151/60 
f 9/9/9 47/153/7 14/14/14 84/152/68 
f 47/153/7 12/12/12 14/14/14 
f 12/12/12 52/154/41 76/155/62 13/13/13 
f 42/156/35 12/157/12 47/158/7 46/159/36 
f 71/111/57 86/160/69 70/161/56 49/112/38 
f 6/105/6 42/108/35 7/109/7 
# 62 polygons - 12 triangles

