# 3ds Max Wavefront OBJ Exporter v0.99 - (c)2007 guruware
# File Created: 19.04.2023 12:48:21

mtllib Stone_Wall_Top.mtl

#
# object Stone_Wall_Top
#

v  0.1077 -0.0000 -0.0000
v  -13.3606 -0.0000 -0.0000
v  -13.3606 3.2808 -0.0000
v  0.1077 3.2808 -0.0000
v  -25.9919 -0.0000 -0.0000
v  -25.9919 3.2808 -0.0000
v  -39.5303 -0.0000 -0.0000
v  -39.5303 3.2808 -0.0000
v  0.1077 3.2808 0.4116
v  -13.3606 3.2808 0.3937
v  -13.3606 4.3234 0.3937
v  0.1077 4.2765 0.4429
v  -25.9919 3.2808 0.3937
v  -25.9919 4.3234 0.3937
v  -39.5327 3.3066 0.4183
v  -39.5375 4.3035 0.4183
v  0.1077 4.3234 -0.0000
v  -13.3606 4.3234 0.2164
v  -13.3606 8.9497 -0.0000
v  0.1077 8.9497 -0.0000
v  -25.9919 4.3234 -0.0000
v  -25.9919 8.9497 -0.0000
v  -39.5281 4.3101 -0.0203
v  -39.5287 8.9441 -0.0152
v  0.1077 8.9497 0.4429
v  -13.3606 8.9497 0.3937
v  -13.3606 9.8658 0.3937
v  0.1077 9.8200 0.4921
v  -25.9919 8.9497 0.3937
v  -25.9919 9.8658 0.3937
v  -39.5339 8.9385 0.4183
v  -39.5303 9.8246 0.4429
v  -25.9919 -0.0000 9.8425
v  -39.5303 -0.0000 9.8425
v  -39.5303 3.2552 9.8425
v  -24.1073 24.9344 7.1055
v  -24.1073 24.9344 2.3008
v  -37.1490 24.9344 2.3008
v  -37.1490 24.9344 7.1055
v  -16.4885 17.0604 7.7657
v  -16.4885 17.0604 1.6406
v  -22.8062 17.0604 1.6406
v  -22.8062 17.0604 7.7657
v  -3.0881 24.9344 6.7997
v  -3.0881 24.9344 2.6067
v  -15.0143 24.9344 2.6067
v  -15.0143 24.9344 6.7997
v  0.1077 8.9497 9.8425
v  0.1077 3.2808 9.8425
v  0.1077 -0.0000 9.8425
v  -13.3606 -0.0000 9.8425
v  0.1077 9.8658 -0.0000
v  0.1077 12.6717 9.8425
v  -13.3606 9.8658 -0.0000
v  -13.3606 17.0604 -0.0000
v  0.1077 17.0604 -0.0000
v  -25.9919 9.8658 -0.0000
v  -25.9919 17.0604 -0.0000
v  -39.5271 9.8658 -0.0000
v  -39.5303 17.0604 -0.0000
v  -38.6232 17.0604 1.6406
v  -38.6232 17.0604 7.7657
v  -39.5303 17.0604 9.8425
v  -25.9919 17.0604 9.8425
v  -13.3606 17.0604 9.8425
v  -1.7870 17.0604 1.6406
v  0.1077 17.0604 9.8425
v  -1.7870 17.0604 7.7657
v  -13.3606 12.8220 9.8425
v  -39.5303 12.8220 9.8425
v  -25.9919 12.8220 9.8425
v  -13.3606 12.8597 20.1432
v  0.1077 12.7094 20.1432
v  -39.5303 12.8597 20.1432
v  -25.9919 12.8597 20.1432
v  0.1077 3.2808 20.1582
v  0.1077 -0.0000 20.1582
v  0.1077 8.9497 20.1581
v  -39.5303 -0.0000 20.1581
v  -39.5303 3.2808 20.1581
v  -39.5303 9.7217 9.8425
v  -39.5303 8.9497 20.1581
# 82 vertices

vn 0.5774 -0.5774 -0.5774
vn 0.0000 -0.7071 -0.7071
vn 0.0000 0.7071 -0.7071
vn 0.5774 0.5774 -0.5774
vn -0.5771 -0.5775 -0.5774
vn -0.5788 0.5580 -0.5947
vn 0.9010 0.3114 -0.3021
vn 0.0005 0.7073 -0.7070
vn 0.0001 -0.7079 -0.7063
vn 0.8958 -0.2913 -0.3357
vn 0.0000 0.7075 -0.7067
vn -0.0001 -0.7075 -0.7067
vn -0.8974 0.2993 -0.3243
vn -0.9022 -0.2981 -0.3116
vn 0.5786 -0.5427 -0.6088
vn 0.0004 -0.7271 -0.6865
vn 0.0000 0.6904 -0.7234
vn 0.0070 -0.7053 -0.7089
vn 0.0002 0.7073 -0.7069
vn -0.5706 -0.5736 -0.5877
vn -0.5729 0.5821 -0.5770
vn 0.8982 0.3191 -0.3023
vn 0.0013 0.7075 -0.7067
vn 0.0014 -0.7083 -0.7059
vn 0.9008 -0.2823 -0.3300
vn -0.0009 0.7072 -0.7070
vn -0.0002 -0.7079 -0.7064
vn -0.9025 0.3088 -0.3001
vn -0.9099 -0.2417 -0.3372
vn 0.0000 -1.0000 -0.0000
vn -0.8944 -0.4472 -0.0000
vn -1.0000 -0.0001 0.0002
vn 0.5268 0.6411 0.5580
vn 0.5268 0.6411 -0.5580
vn -0.5194 0.6462 -0.5591
vn -0.5194 0.6462 0.5591
vn -0.2585 0.9332 0.2496
vn -0.2585 0.9332 -0.2496
vn 0.2687 0.9284 -0.2567
vn 0.2687 0.9284 0.2567
vn 0.5282 0.6514 0.5447
vn 0.5282 0.6514 -0.5447
vn -0.5207 0.6566 -0.5456
vn -0.5207 0.6566 0.5456
vn 1.0000 0.0000 -0.0000
vn 0.8944 -0.4472 -0.0000
vn 0.5824 -0.5475 -0.6009
vn 0.9062 0.3007 0.2975
vn -0.5818 -0.5474 -0.6015
vn -0.5774 0.5773 -0.5774
vn -0.2668 0.9303 -0.2519
vn -0.2668 0.9303 0.2519
vn -0.5774 0.5774 0.5774
vn 0.0000 0.7071 0.7071
vn 0.2603 0.9314 -0.2543
vn 0.5774 0.5774 0.5774
vn 0.2603 0.9314 0.2543
vn 0.0039 0.7071 0.7071
vn -0.9050 0.3014 0.3001
vn 0.0000 0.7084 0.7058
vn 0.0056 1.0000 -0.0037
vn 0.7110 0.7031 -0.0026
vn -0.7071 0.7071 -0.0026
vn 0.0000 1.0000 -0.0037
vn -1.0000 0.0000 -0.0000
vn -1.0000 0.0001 0.0001
# 66 vertex normals

vt 0.6605 0.4958 0.0000
vt 0.4957 0.4958 0.0000
vt 0.4957 0.4557 0.0000
vt 0.6605 0.4557 0.0000
vt 0.3412 0.4958 0.0000
vt 0.3412 0.4557 0.0000
vt 0.1756 0.4958 0.0000
vt 0.1756 0.4557 0.0000
vt 0.7006 0.9719 0.0000
vt 0.5358 0.9719 0.0000
vt 0.5358 0.9591 0.0000
vt 0.7006 0.9597 0.0000
vt 0.3813 0.9716 0.0000
vt 0.3813 0.9588 0.0000
vt 0.2156 0.9708 0.0000
vt 0.2156 0.9587 0.0000
vt 0.6917 0.8591 0.0000
vt 0.5269 0.8592 0.0000
vt 0.5269 0.8026 0.0000
vt 0.6917 0.8026 0.0000
vt 0.3723 0.8591 0.0000
vt 0.3724 0.8025 0.0000
vt 0.2067 0.8591 0.0000
vt 0.2067 0.8024 0.0000
vt 0.6961 0.9302 0.0000
vt 0.5313 0.9296 0.0000
vt 0.5314 0.9184 0.0000
vt 0.6961 0.9196 0.0000
vt 0.3768 0.9296 0.0000
vt 0.3768 0.9184 0.0000
vt 0.2112 0.9298 0.0000
vt 0.2112 0.9190 0.0000
vt 0.0165 0.6652 0.0000
vt 0.0159 0.4995 0.0000
vt 0.1363 0.4991 0.0000
vt 0.1369 0.6648 0.0000
vt 0.8397 0.3576 0.0000
vt 0.8397 0.3178 0.0000
vt 0.9550 0.3172 0.0000
vt 0.9601 0.3576 0.0000
vt 0.8953 0.9180 0.0000
vt 0.8953 0.9768 0.0000
vt 0.7357 0.9768 0.0000
vt 0.7357 0.9180 0.0000
vt 0.7908 0.5801 0.0000
vt 0.7908 0.6551 0.0000
vt 0.7135 0.6551 0.0000
vt 0.7135 0.5801 0.0000
vt 0.8772 0.8424 0.0000
vt 0.8772 0.8937 0.0000
vt 0.7313 0.8937 0.0000
vt 0.7313 0.8424 0.0000
vt 0.8397 0.5029 0.0000
vt 0.8397 0.4336 0.0000
vt 0.9547 0.4457 0.0000
vt 0.9547 0.5029 0.0000
vt 0.8397 0.3934 0.0000
vt 0.9601 0.3934 0.0000
vt 0.9551 0.4336 0.0000
vt 0.0175 0.9845 0.0000
vt 0.0170 0.8197 0.0000
vt 0.1374 0.8193 0.0000
vt 0.1379 0.9841 0.0000
vt 0.9541 0.5136 0.0000
vt 0.9601 0.5141 0.0000
vt 0.8397 0.5484 0.0000
vt 0.5049 0.4325 0.0000
vt 0.3402 0.4325 0.0000
vt 0.3402 0.3445 0.0000
vt 0.5049 0.3445 0.0000
vt 0.1856 0.4325 0.0000
vt 0.1856 0.3445 0.0000
vt 0.0200 0.4325 0.0000
vt 0.0200 0.3445 0.0000
vt 0.6961 0.8878 0.0000
vt 0.5314 0.8878 0.0000
vt 0.5314 0.8830 0.0000
vt 0.6961 0.8824 0.0000
vt 0.3768 0.8878 0.0000
vt 0.3768 0.8830 0.0000
vt 0.2112 0.8880 0.0000
vt 0.2112 0.8827 0.0000
vt 0.2112 0.9135 0.0000
vt 0.3768 0.9136 0.0000
vt 0.5314 0.9136 0.0000
vt 0.6961 0.9135 0.0000
vt 0.7006 0.9769 0.0000
vt 0.5358 0.9767 0.0000
vt 0.3813 0.9765 0.0000
vt 0.2156 0.9759 0.0000
vt 0.2157 0.9535 0.0000
vt 0.3813 0.9540 0.0000
vt 0.2156 0.9589 0.0000
vt 0.5358 0.9569 0.0000
vt 0.7006 0.9543 0.0000
vt 0.6521 0.1399 0.0000
vt 0.6138 0.1673 0.0000
vt 0.5001 0.0264 0.0000
vt 0.5209 0.0200 0.0000
vt 0.1867 0.5477 0.0000
vt 0.1756 0.5223 0.0000
vt 0.3412 0.5223 0.0000
vt 0.3802 0.5477 0.0000
vt 0.7239 0.1395 0.0000
vt 0.7619 0.1677 0.0000
vt 0.4957 0.5223 0.0000
vt 0.4575 0.5477 0.0000
vt 0.8487 0.0314 0.0000
vt 0.8778 0.0306 0.0000
vt 0.6605 0.5223 0.0000
vt 0.6373 0.5477 0.0000
vt 0.4404 0.0456 0.0000
vt 0.5107 0.0851 0.0000
vt 0.4516 0.1725 0.0000
vt 0.3965 0.1414 0.0000
vt 0.0200 0.0749 0.0000
vt 0.2209 0.0200 0.0000
vt 0.2296 0.1255 0.0000
vt 0.0639 0.1707 0.0000
vt 0.3015 0.0200 0.0000
vt 0.2928 0.1255 0.0000
vt 0.3294 0.1978 0.0000
vt 0.4044 0.1978 0.0000
vt 0.3925 0.2958 0.0000
vt 0.3412 0.2958 0.0000
vt 0.5760 0.2516 0.0000
vt 0.5318 0.3395 0.0000
vt 0.6384 0.2931 0.0000
vt 0.5745 0.3679 0.0000
vt 0.1578 0.2516 0.0000
vt 0.2020 0.3395 0.0000
vt 0.6828 0.7761 0.0000
vt 0.5180 0.7762 0.0000
vt 0.5180 0.7244 0.0000
vt 0.6827 0.7224 0.0000
vt 0.3635 0.7763 0.0000
vt 0.1979 0.7764 0.0000
vt 0.1978 0.7246 0.0000
vt 0.3634 0.7245 0.0000
vt 0.9601 0.6021 0.0000
vt 0.8397 0.6021 0.0000
vt 0.8397 0.2008 0.0000
vt 0.8397 0.1489 0.0000
vt 0.9601 0.1489 0.0000
vt 0.9601 0.2369 0.0000
vt 0.6783 0.6973 0.0000
vt 0.5135 0.6973 0.0000
vt 0.5135 0.5712 0.0000
vt 0.6783 0.5712 0.0000
vt 0.3590 0.6973 0.0000
vt 0.1934 0.6973 0.0000
vt 0.1934 0.5712 0.0000
vt 0.3590 0.5712 0.0000
vt 0.7135 0.4336 0.0000
vt 0.7135 0.3934 0.0000
vt 0.7135 0.5029 0.0000
vt 0.7135 0.3576 0.0000
vt 0.7135 0.3175 0.0000
vt 0.8397 0.2387 0.0000
vt 0.7135 0.2481 0.0000
vt 0.7137 0.2003 0.0000
vt 0.7137 0.5489 0.0000
vt 0.0795 0.3004 0.0000
vt 0.0689 0.2263 0.0000
vt 0.0882 0.1978 0.0000
vt 0.1053 0.3170 0.0000
vt 0.0353 0.2237 0.0000
vt 0.0320 0.2985 0.0000
vt 0.0200 0.3181 0.0000
vt 0.0253 0.1978 0.0000
vt 0.9601 0.4336 0.0000
vt 0.9601 0.4463 0.0000
vt 0.9601 0.5029 0.0000
vt 0.1445 0.4645 0.0000
vt 0.1496 0.4649 0.0000
vt 0.1496 0.5050 0.0000
vt 0.9547 0.2374 0.0000
vt 0.9550 0.2483 0.0000
vt 0.9550 0.3050 0.0000
vt 0.7088 0.0378 0.0000
vt 0.7088 0.0500 0.0000
vt 0.5935 0.0506 0.0000
vt 0.6068 0.4191 0.0000
vt 0.6068 0.3624 0.0000
vt 0.6121 0.3623 0.0000
vt 0.6122 0.4190 0.0000
# 186 texture coords

o Stone_Wall_Top
g Stone_Wall_Top
usemtl 01___Default
s 32
f 1/1/1 2/2/2 3/3/3 4/4/4 
f 2/2/2 5/5/2 6/6/3 3/3/3 
f 5/5/2 7/7/5 8/8/6 6/6/3 
f 9/9/7 10/10/8 11/11/9 12/12/10 
f 10/10/8 13/13/11 14/14/12 11/11/9 
f 13/13/11 15/15/13 16/16/14 14/14/12 
f 17/17/15 18/18/16 19/19/17 20/20/4 
f 18/18/16 21/21/18 22/22/19 19/19/17 
f 21/21/18 23/23/20 24/24/21 22/22/19 
f 25/25/22 26/26/23 27/27/24 28/28/25 
f 26/26/23 29/29/26 30/30/27 27/27/24 
f 29/29/26 31/31/28 32/32/29 30/30/27 
s off
f 33/33/30 34/34/31 7/35/5 5/36/2 
f 34/37/31 35/38/32 15/39/13 7/40/5 
f 36/41/33 37/42/34 38/43/35 39/44/36 
f 40/45/37 41/46/38 42/47/39 43/48/40 
f 44/49/41 45/50/42 46/51/43 47/52/44 
f 48/53/45 49/54/45 12/55/10 25/56/22 
f 49/54/45 50/57/46 1/58/1 9/59/7 
f 50/60/46 51/61/30 2/62/2 1/63/1 
f 51/61/30 33/33/30 5/36/2 2/62/2 
f 48/53/45 28/64/25 52/65/47 53/66/48 
f 52/67/47 54/68/2 55/69/3 56/70/4 
f 54/68/2 57/71/2 58/72/3 55/69/3 
f 57/71/2 59/73/49 60/74/50 58/72/3 
f 20/75/4 19/76/17 26/77/23 25/78/22 
f 19/76/17 22/79/19 29/80/26 26/77/23 
f 22/79/19 24/81/21 31/82/28 29/80/26 
f 59/83/49 57/84/2 30/30/27 32/32/29 
f 57/84/2 54/85/2 27/27/24 30/30/27 
f 54/85/2 52/86/47 28/28/25 27/27/24 
f 4/87/4 3/88/3 10/10/8 9/9/7 
f 3/88/3 6/89/3 13/13/11 10/10/8 
f 6/89/3 8/90/6 15/15/13 13/13/11 
f 23/91/20 21/92/18 14/14/12 16/93/14 
f 21/92/18 18/94/16 11/11/9 14/14/12 
f 18/94/16 17/95/15 12/12/10 11/11/9 
f 42/96/39 58/97/3 60/98/50 61/99/51 
f 62/100/52 63/101/53 64/102/54 43/103/40 
f 41/104/38 55/105/3 58/97/3 42/96/39 
f 43/103/40 64/102/54 65/106/54 40/107/37 
f 66/108/55 56/109/4 55/105/3 41/104/38 
f 40/107/37 65/106/54 67/110/56 68/111/57 
f 43/112/40 42/113/39 37/114/34 36/115/33 
f 42/116/39 61/117/51 38/118/35 37/119/34 
f 61/117/51 62/120/52 39/121/36 38/118/35 
f 62/120/52 43/112/40 36/115/33 39/121/36 
f 41/122/38 40/123/37 47/124/44 46/125/43 
f 40/123/37 68/126/57 44/127/41 47/124/44 
f 68/126/57 66/128/55 45/129/42 44/127/41 
f 66/130/55 41/122/38 46/125/43 45/131/42 
f 67/132/56 65/133/54 69/134/58 53/135/48 
f 64/136/54 63/137/53 70/138/59 71/139/60 
f 65/133/54 64/136/54 71/139/60 69/134/58 
f 52/65/47 56/140/4 67/141/56 53/66/48 
f 70/142/59 63/143/53 60/144/50 59/145/49 
f 53/146/48 69/147/58 72/148/61 73/149/62 
f 71/150/60 70/151/59 74/152/63 75/153/64 
f 69/147/58 71/150/60 75/153/64 72/148/61 
f 50/57/46 49/54/45 76/154/45 77/155/45 
f 49/54/45 48/53/45 78/156/45 76/154/45 
f 35/38/32 34/37/31 79/157/65 80/158/65 
f 81/159/66 35/38/32 80/158/65 82/160/65 
f 70/142/59 81/159/66 82/160/65 74/161/63 
f 48/53/45 53/66/48 73/162/62 78/156/45 
f 66/163/55 68/164/57 67/165/56 56/166/4 
f 62/167/52 61/168/51 60/169/50 63/170/53 
f 1/58/1 4/171/4 9/59/7 
f 12/55/10 17/172/15 20/173/4 25/56/22 
f 15/174/13 8/175/6 7/176/5 
f 32/177/29 81/159/66 70/142/59 59/145/49 
f 12/55/10 49/54/45 9/59/7 
f 28/64/25 48/53/45 25/56/22 
f 32/177/29 31/178/28 81/159/66 
f 81/159/66 31/178/28 16/179/14 35/38/32 
f 16/180/14 15/181/13 35/182/32 
f 16/183/14 31/184/28 24/185/21 23/186/20 
# 71 polygons - 6 triangles

