# 3ds Max Wavefront OBJ Exporter v0.99 - (c)2007 guruware
# File Created: 19.04.2023 12:48:20

mtllib WallStone_003.mtl

#
# object WallStone_003
#

v  37.0624 4.2567 -3.3053
v  36.9347 7.8676 -3.0006
v  43.1467 8.1022 -3.0201
v  43.3073 4.5805 -3.3064
v  16.8606 3.3146 -3.3029
v  16.8660 6.9182 -2.9542
v  23.2634 7.2176 -2.9663
v  23.3050 3.5713 -3.3035
v  -3.9734 3.1098 -3.3017
v  -3.7871 6.4084 -2.9317
v  2.7943 6.4599 -2.9361
v  2.6705 3.0428 -3.3019
v  -25.4397 4.5487 -3.3016
v  -25.0190 7.3954 -2.9347
v  -18.2557 6.8532 -2.9309
v  -18.5962 3.8560 -3.3015
v  36.7049 17.1541 -5.5916
v  36.6292 19.0108 -6.0747
v  42.7601 19.0875 -4.5005
v  42.8564 17.2598 -4.0201
v  16.9017 16.2956 -4.6171
v  16.9263 18.2208 -5.1075
v  23.1887 18.5280 -5.1249
v  23.2021 16.6167 -4.6368
v  -3.3495 15.4307 -4.5887
v  -3.1580 17.3156 -5.0886
v  3.2186 17.5545 -5.0880
v  3.0882 15.6400 -4.5917
v  -24.0050 15.6390 -4.6201
v  -23.5575 17.2840 -5.1372
v  -17.0901 17.9435 -5.1136
v  -17.4456 15.3901 -4.6030
v  43.4890 0.0000 -0.0001
v  36.9274 0.0000 -0.0001
v  37.1017 0.5231 -3.6111
v  43.3147 0.5231 -3.6111
v  30.2248 3.6899 -1.3619
v  30.1299 7.7551 -0.0001
v  30.6640 7.5804 -2.9834
v  30.7546 3.9289 -3.3044
v  36.6354 10.3875 -0.0001
v  43.1616 10.5547 -0.0001
v  43.0059 9.9929 -3.8913
v  36.8229 9.8270 -3.8617
v  50.0507 7.6453 -0.0001
v  50.0507 4.3745 -1.3619
v  49.5276 4.5488 -3.6111
v  49.5276 7.4710 -3.6111
v  23.8040 0.0000 -0.0001
v  17.2423 0.0000 -0.0001
v  17.4167 0.5231 -3.6111
v  23.6296 0.5231 -3.6111
v  9.8000 2.9143 -1.3619
v  9.8670 6.8397 -0.0007
v  10.4104 6.6619 -2.9444
v  10.3533 3.1303 -3.3024
v  16.7012 9.4657 -0.0013
v  23.4046 9.8048 -0.0006
v  23.2308 9.2230 -3.8095
v  16.8781 8.9030 -3.7913
v  29.6863 3.8749 -3.3043
v  29.6024 7.5290 -2.9808
v  4.1190 0.0000 -0.0001
v  -2.4427 0.0000 -0.0001
v  -2.2684 0.5231 -3.6111
v  3.9446 0.5231 -3.6111
v  -11.2588 3.1810 -1.3619
v  -10.9761 6.7036 -0.0027
v  -10.4261 6.5050 -2.9298
v  -10.6803 3.3394 -3.3015
v  -3.7527 8.7333 -0.0065
v  3.1219 8.8891 -0.0041
v  2.9230 8.3234 -3.7655
v  -3.5945 8.1849 -3.7603
v  9.2514 3.1083 -3.3023
v  9.3177 6.6253 -2.9430
v  -15.5661 0.0000 -0.0001
v  -22.1277 0.0000 -0.0001
v  -21.9534 0.5231 -3.6111
v  -15.7404 0.5231 -3.6111
v  -28.6895 4.3745 -0.0001
v  -28.6895 7.6453 -0.0001
v  -28.1664 7.4710 -3.6111
v  -28.1664 4.5488 -3.6111
v  -24.7047 9.3059 -0.0197
v  -17.6671 8.8977 -0.0141
v  -17.9002 8.3827 -3.7640
v  -24.5756 8.7861 -3.7731
v  -11.8158 3.3963 -3.3015
v  -11.5496 6.5383 -2.9298
v  36.7965 10.9564 -4.0556
v  42.9725 11.1076 -4.0867
v  29.9834 16.7445 -0.0004
v  29.9316 18.9867 -0.0006
v  30.4551 18.8314 -5.1512
v  30.5052 16.9467 -4.6658
v  36.3909 21.8365 -0.0002
v  42.8459 21.9018 -0.0001
v  42.6834 21.3985 -5.5455
v  36.5695 21.3358 -5.5211
v  50.0507 18.0052 -0.0001
v  50.0507 15.8431 -0.0001
v  49.5276 16.0175 -3.6111
v  49.5276 17.8308 -3.6111
v  16.8823 10.0433 -3.9818
v  23.2238 10.3656 -4.0008
v  10.0173 15.7651 -0.0049
v  10.0969 19.3622 -0.0080
v  10.6257 17.9015 -5.0952
v  10.5567 15.9732 -4.6023
v  16.7841 21.1266 -0.0059
v  23.3573 21.4226 -0.0026
v  23.1832 20.9050 -5.4789
v  16.9551 20.6211 -5.4659
v  29.4567 16.9040 -4.6612
v  29.4114 18.7930 -5.1471
v  -3.5440 9.2851 -3.9502
v  2.9569 9.4415 -3.9553
v  -10.3867 12.6301 -0.0201
v  -10.0958 18.6405 -0.0326
v  -9.5663 17.1639 -5.0959
v  -9.8278 15.3281 -4.5916
v  -3.1273 20.2428 -0.0307
v  3.5386 20.5053 -0.0193
v  3.3457 19.9786 -5.4558
v  -2.9731 19.7299 -5.4609
v  9.4840 15.9212 -4.6003
v  9.5613 17.8487 -5.0937
v  -24.4583 9.7968 -3.9664
v  -17.8066 9.4273 -3.9557
v  -28.6895 13.3240 -0.0001
v  -28.6895 19.3156 -0.0001
v  -28.1664 17.8308 -3.6111
v  -28.1664 16.0175 -3.6111
v  -23.2518 20.0231 -0.0919
v  -16.5269 19.9715 -0.0661
v  -16.7484 19.4610 -5.4969
v  -23.1270 19.5196 -5.5267
v  -10.9224 15.3238 -4.5927
v  -10.6483 17.1492 -5.0978
v  30.3657 0.0000 -0.0001
v  30.8887 0.5231 -3.6111
v  49.5276 0.5231 -3.6111
v  50.0507 0.0000 -0.0001
v  50.0507 9.5007 -0.0001
v  49.5276 8.9776 -3.6111
v  30.5859 9.5775 -3.8355
v  30.0495 10.1250 -0.0002
v  10.6806 0.0000 -0.0001
v  11.2037 0.5231 -3.6111
v  29.8426 0.5231 -3.6111
v  29.5304 9.5295 -3.8314
v  10.4728 8.6030 -3.7770
v  9.9401 9.1470 -0.0024
v  -9.0044 0.0000 -0.0001
v  -8.4814 0.5231 -3.6111
v  10.1576 0.5231 -3.6111
v  9.3891 8.5569 -3.7750
v  -10.1628 8.1770 -3.7593
v  -10.6827 8.7217 -0.0098
v  -28.6895 0.0000 -0.0001
v  -28.1664 0.5231 -3.6111
v  -9.5275 0.5231 -3.6111
v  -11.2737 8.1912 -3.7596
v  -28.1664 8.9776 -3.6111
v  -28.6895 9.5007 -0.0001
v  30.5676 10.7161 -4.0281
v  49.5276 10.0237 -3.6111
v  50.0507 20.7652 -0.0001
v  49.5276 20.2421 -3.6111
v  30.4172 21.1787 -5.4996
v  29.8938 21.6684 -0.0008
v  10.4897 9.7359 -3.9670
v  29.5137 10.6692 -4.0238
v  29.3777 21.1445 -5.4963
v  10.6956 20.3189 -5.4580
v  10.1768 20.8105 -0.0113
v  -10.0937 9.2545 -3.9499
v  9.4083 9.6881 -3.9649
v  9.6387 20.2681 -5.4572
v  -9.3148 19.5494 -5.4730
v  -9.8172 20.0546 -0.0460
v  -28.1664 10.0237 -3.6111
v  -11.2012 9.2643 -3.9503
v  -10.3846 19.5277 -5.4758
v  -28.1664 20.2421 -3.6111
v  -28.6895 20.7652 -0.0001
# 187 vertices

vn -0.0044 0.0828 -0.9966
vn 0.0040 -0.1645 -0.9864
vn -0.0533 -0.1863 -0.9810
vn -0.0266 0.0774 -0.9966
vn -0.0035 0.1027 -0.9947
vn 0.0048 -0.1502 -0.9886
vn 0.0052 -0.1520 -0.9884
vn -0.0043 0.0960 -0.9954
vn 0.0028 0.1161 -0.9932
vn -0.0012 -0.1597 -0.9872
vn 0.0016 -0.1541 -0.9880
vn 0.0002 0.1143 -0.9935
vn 0.0753 0.1334 -0.9882
vn 0.0940 -0.2233 -0.9702
vn -0.0115 -0.1810 -0.9834
vn 0.0098 0.1109 -0.9938
vn 0.0573 -0.2444 -0.9680
vn 0.0493 -0.0073 -0.9988
vn 0.1502 -0.3284 -0.9325
vn 0.1396 -0.1248 -0.9823
vn 0.0062 -0.1745 -0.9846
vn 0.0075 -0.1976 -0.9803
vn 0.0059 -0.1975 -0.9803
vn 0.0050 -0.1749 -0.9846
vn 0.0043 -0.1803 -0.9836
vn 0.0069 -0.2055 -0.9786
vn 0.0081 -0.2014 -0.9795
vn 0.0058 -0.1771 -0.9842
vn -0.1344 -0.1810 -0.9742
vn -0.1463 -0.2057 -0.9676
vn 0.0020 -0.2227 -0.9749
vn -0.0016 -0.1516 -0.9884
vn 0.0000 -0.9897 -0.1434
vn 0.0000 -0.6230 -0.7822
vn 0.0000 -0.6257 -0.7801
vn 0.0094 -0.0510 -0.9987
vn -0.0079 0.1408 -0.9900
vn -0.6903 -0.1362 -0.7106
vn -0.6109 0.0508 -0.7901
vn 0.0003 -0.0083 -1.0000
vn -0.0091 -0.0625 -0.9980
vn 0.0471 0.5034 -0.8627
vn -0.0200 0.4867 -0.8734
vn 0.9892 0.0250 -0.1445
vn 0.9741 0.0083 -0.2259
vn 0.6025 0.0000 -0.7981
vn 0.6189 0.0000 -0.7855
vn 0.0000 -0.6119 -0.7909
vn 0.0000 -0.6156 -0.7880
vn 0.1604 -0.0501 -0.9858
vn 0.0079 0.1445 -0.9895
vn -0.6952 -0.0889 -0.7133
vn -0.6365 -0.0143 -0.7711
vn 0.0002 -0.0028 -1.0000
vn 0.0003 -0.0047 -1.0000
vn -0.0270 0.4894 -0.8717
vn -0.0260 0.4877 -0.8726
vn 0.6012 0.0923 -0.7937
vn 0.6997 -0.0952 -0.7080
vn 0.0000 -0.6083 -0.7937
vn 0.0000 -0.6071 -0.7946
vn 0.2726 0.1797 -0.9452
vn 0.0372 0.1524 -0.9876
vn -0.7090 -0.0300 -0.7046
vn -0.6468 -0.1286 -0.7517
vn 0.0001 0.0030 -1.0000
vn -0.0001 0.0010 -1.0000
vn -0.0144 0.4779 -0.8783
vn -0.0057 0.4704 -0.8825
vn 0.5520 0.1772 -0.8148
vn 0.6920 -0.1354 -0.7091
vn 0.0000 -0.6250 -0.7806
vn 0.0000 -0.6188 -0.7856
vn -0.9897 0.0000 -0.1434
vn -0.5709 0.0000 -0.8210
vn -0.6107 0.0000 -0.7919
vn -0.0024 -0.0072 -1.0000
vn 0.0004 0.0069 -1.0000
vn 0.0219 0.4443 -0.8956
vn 0.0076 0.4336 -0.9011
vn 0.4822 0.2334 -0.8444
vn 0.6757 -0.2196 -0.7037
vn 0.0201 -0.7418 -0.6703
vn -0.0125 -0.6224 -0.7826
vn -0.0041 -0.0000 -1.0000
vn 0.0025 -0.0001 -1.0000
vn -0.7096 -0.1544 -0.6875
vn -0.7280 -0.1339 -0.6724
vn -0.0181 0.9957 -0.0909
vn 0.0740 0.9930 -0.0923
vn 0.1399 0.5010 -0.8541
vn -0.0159 0.7568 -0.6535
vn 0.9897 0.0000 -0.1434
vn 0.6773 0.0000 -0.7357
vn 0.7024 0.0000 -0.7118
vn 0.0324 -0.6922 -0.7209
vn 0.0319 -0.6919 -0.7213
vn 0.0033 -0.0009 -1.0000
vn 0.0217 -0.0035 -0.9998
vn -0.6553 -0.1312 -0.7439
vn -0.6818 -0.1101 -0.7232
vn -0.0461 0.9945 -0.0935
vn -0.0410 0.9948 -0.0927
vn -0.0280 0.6175 -0.7860
vn -0.0302 0.6163 -0.7869
vn 0.6859 -0.1181 -0.7181
vn 0.6610 -0.1360 -0.7379
vn 0.0099 -0.6967 -0.7173
vn 0.0207 -0.6948 -0.7189
vn -0.0448 0.0012 -0.9990
vn 0.0798 -0.0242 -0.9965
vn -0.6456 -0.0871 -0.7587
vn -0.7150 -0.0463 -0.6976
vn -0.0333 0.9949 -0.0949
vn -0.0424 0.9946 -0.0949
vn -0.0259 0.6136 -0.7892
vn -0.0197 0.6122 -0.7905
vn 0.6769 -0.1501 -0.7206
vn 0.6646 -0.1698 -0.7276
vn -0.0742 -0.6889 -0.7210
vn -0.0275 -0.7012 -0.7125
vn -0.7665 0.0000 -0.6423
vn -0.7396 0.0000 -0.6731
vn 0.0722 0.9933 -0.0904
vn -0.0023 0.9956 -0.0935
vn 0.0033 0.5734 -0.8193
vn -0.0953 0.5676 -0.8178
vn 0.6159 -0.2266 -0.7545
vn 0.6512 -0.2416 -0.7194
vn -0.0016 -0.9703 -0.2420
vn -0.5206 -0.5180 -0.6787
vn 0.5361 -0.5361 -0.6520
vn 0.5935 -0.7799 -0.1989
vn 0.9609 0.0115 -0.2767
vn 0.5877 0.4847 -0.6478
vn -0.5429 0.3813 -0.7483
vn 0.0032 -0.0113 -0.9999
vn -0.0101 -0.9728 -0.2314
vn -0.4301 -0.5646 -0.7044
vn 0.5475 -0.4964 -0.6737
vn 0.5055 0.4251 -0.7509
vn -0.5248 0.3899 -0.7567
vn -0.0026 -0.0089 -1.0000
vn -0.0203 -0.9743 -0.2245
vn -0.3104 -0.6146 -0.7252
vn 0.6298 -0.4069 -0.6616
vn 0.5247 0.4055 -0.7485
vn -0.4834 0.4065 -0.7753
vn -0.0097 -0.0063 -0.9999
vn -0.6927 -0.6927 -0.2007
vn -0.5361 -0.5361 -0.6520
vn 0.7119 -0.2947 -0.6374
vn 0.5618 0.3421 -0.7532
vn -0.5347 0.5554 -0.6368
vn -0.9607 -0.0037 -0.2776
vn -0.5325 -0.5794 -0.6170
vn 0.5088 -0.5927 -0.6244
vn 0.7411 0.6408 -0.2002
vn 0.6607 0.4823 -0.5752
vn -0.5565 0.4964 -0.6662
vn -0.0324 0.9825 -0.1832
vn -0.5329 -0.5764 -0.6195
vn 0.5587 -0.5506 -0.6202
vn 0.5306 0.5231 -0.6669
vn -0.5477 0.4979 -0.6724
vn -0.0522 0.9807 -0.1882
vn -0.5513 -0.5595 -0.6189
vn 0.5491 -0.5595 -0.6208
vn 0.5423 0.5132 -0.6653
vn -0.5195 0.5180 -0.6796
vn -0.0322 0.9814 -0.1891
vn -0.5809 -0.5183 -0.6277
vn 0.5215 -0.5890 -0.6174
vn 0.5726 0.4805 -0.6642
vn -0.5870 0.6012 -0.5423
vn -0.6542 0.7293 -0.2004
# 176 vertex normals

vt 0.4760 0.9297 0.0000
vt 0.4772 0.9537 0.0000
vt 0.4376 0.9562 0.0000
vt 0.4358 0.9332 0.0000
vt 0.6284 0.9170 0.0000
vt 0.6293 0.9413 0.0000
vt 0.5888 0.9450 0.0000
vt 0.5871 0.9205 0.0000
vt 0.7842 0.9034 0.0000
vt 0.7849 0.9259 0.0000
vt 0.7431 0.9298 0.0000
vt 0.7416 0.9067 0.0000
vt 0.9443 0.8888 0.0000
vt 0.9441 0.9072 0.0000
vt 0.9006 0.9116 0.0000
vt 0.8994 0.8914 0.0000
vt 0.1267 0.5133 0.0000
vt 0.1268 0.5256 0.0000
vt 0.0881 0.5227 0.0000
vt 0.0873 0.5110 0.0000
vt 0.2932 0.5056 0.0000
vt 0.2938 0.5193 0.0000
vt 0.2563 0.5227 0.0000
vt 0.2554 0.5092 0.0000
vt 0.4581 0.4839 0.0000
vt 0.4588 0.4975 0.0000
vt 0.4208 0.5039 0.0000
vt 0.4197 0.4904 0.0000
vt 0.6279 0.4565 0.0000
vt 0.6266 0.4672 0.0000
vt 0.5881 0.4813 0.0000
vt 0.5870 0.4640 0.0000
vt 0.4303 0.8822 0.0000
vt 0.4788 0.8804 0.0000
vt 0.4756 0.9047 0.0000
vt 0.4347 0.9062 0.0000
vt 0.5312 0.9238 0.0000
vt 0.5332 0.9554 0.0000
vt 0.5175 0.9496 0.0000
vt 0.5177 0.9267 0.0000
vt 0.4845 0.9935 0.0000
vt 0.4347 0.9947 0.0000
vt 0.4387 0.9694 0.0000
vt 0.4786 0.9681 0.0000
vt 0.3743 0.9619 0.0000
vt 0.3790 0.9332 0.0000
vt 0.3945 0.9351 0.0000
vt 0.3960 0.9524 0.0000
vt 0.5785 0.8761 0.0000
vt 0.6273 0.8738 0.0000
vt 0.6246 0.8981 0.0000
vt 0.5836 0.9001 0.0000
vt 0.6835 0.9110 0.0000
vt 0.6863 0.9418 0.0000
vt 0.6707 0.9364 0.0000
vt 0.6708 0.9148 0.0000
vt 0.6374 0.9809 0.0000
vt 0.5869 0.9857 0.0000
vt 0.5894 0.9599 0.0000
vt 0.6306 0.9561 0.0000
vt 0.5450 0.9248 0.0000
vt 0.5479 0.9475 0.0000
vt 0.7257 0.8665 0.0000
vt 0.7738 0.8622 0.0000
vt 0.7722 0.8865 0.0000
vt 0.7315 0.8904 0.0000
vt 0.8392 0.8981 0.0000
vt 0.8433 0.9260 0.0000
vt 0.8276 0.9209 0.0000
vt 0.8275 0.9026 0.0000
vt 0.7930 0.9638 0.0000
vt 0.7416 0.9695 0.0000
vt 0.7433 0.9439 0.0000
vt 0.7858 0.9394 0.0000
vt 0.6977 0.9113 0.0000
vt 0.7008 0.9333 0.0000
vt 0.8702 0.8485 0.0000
vt 0.9173 0.8415 0.0000
vt 0.9172 0.8661 0.0000
vt 0.8772 0.8721 0.0000
vt 0.9851 0.8788 0.0000
vt 0.9876 0.9072 0.0000
vt 0.9642 0.9033 0.0000
vt 0.9620 0.8861 0.0000
vt 0.9517 0.9409 0.0000
vt 0.8995 0.9493 0.0000
vt 0.9002 0.9239 0.0000
vt 0.9434 0.9176 0.0000
vt 0.8536 0.8951 0.0000
vt 0.8569 0.9155 0.0000
vt 0.0886 0.4387 0.0000
vt 0.1381 0.4409 0.0000
vt 0.1315 0.4676 0.0000
vt 0.0902 0.4665 0.0000
vt 0.1913 0.5139 0.0000
vt 0.1916 0.5333 0.0000
vt 0.1643 0.5225 0.0000
vt 0.1652 0.5131 0.0000
vt 0.1359 0.5761 0.0000
vt 0.0815 0.5719 0.0000
vt 0.0906 0.5377 0.0000
vt 0.1286 0.5405 0.0000
vt 0.0206 0.5204 0.0000
vt 0.0198 0.4996 0.0000
vt 0.0439 0.5026 0.0000
vt 0.0438 0.5141 0.0000
vt 0.2439 0.4373 0.0000
vt 0.2962 0.4329 0.0000
vt 0.2932 0.4596 0.0000
vt 0.2512 0.4634 0.0000
vt 0.3565 0.5006 0.0000
vt 0.3587 0.5298 0.0000
vt 0.3318 0.5120 0.0000
vt 0.3317 0.5021 0.0000
vt 0.3060 0.5704 0.0000
vt 0.2496 0.5748 0.0000
vt 0.2556 0.5390 0.0000
vt 0.2957 0.5357 0.0000
vt 0.2174 0.5129 0.0000
vt 0.2187 0.5223 0.0000
vt 0.4040 0.4201 0.0000
vt 0.4572 0.4121 0.0000
vt 0.4557 0.4387 0.0000
vt 0.4129 0.4453 0.0000
vt 0.5198 0.4579 0.0000
vt 0.5246 0.5027 0.0000
vt 0.4967 0.4876 0.0000
vt 0.4970 0.4782 0.0000
vt 0.4744 0.5476 0.0000
vt 0.4188 0.5568 0.0000
vt 0.4209 0.5206 0.0000
vt 0.4613 0.5139 0.0000
vt 0.3813 0.4978 0.0000
vt 0.3820 0.5075 0.0000
vt 0.5683 0.3961 0.0000
vt 0.6222 0.3888 0.0000
vt 0.6204 0.4149 0.0000
vt 0.5774 0.4212 0.0000
vt 0.6742 0.4296 0.0000
vt 0.6814 0.4752 0.0000
vt 0.6579 0.4645 0.0000
vt 0.6556 0.4531 0.0000
vt 0.6381 0.5152 0.0000
vt 0.5851 0.5277 0.0000
vt 0.5863 0.4918 0.0000
vt 0.6253 0.4820 0.0000
vt 0.5473 0.4721 0.0000
vt 0.5478 0.4810 0.0000
vt 0.5292 0.8918 0.0000
vt 0.5144 0.9076 0.0000
vt 0.3963 0.9115 0.0000
vt 0.3816 0.8964 0.0000
vt 0.3843 0.9780 0.0000
vt 0.3979 0.9595 0.0000
vt 0.5156 0.9599 0.0000
vt 0.5345 0.9751 0.0000
vt 0.6775 0.8838 0.0000
vt 0.6639 0.9015 0.0000
vt 0.5453 0.9059 0.0000
vt 0.5511 0.9574 0.0000
vt 0.6687 0.9463 0.0000
vt 0.6879 0.9609 0.0000
vt 0.8233 0.8694 0.0000
vt 0.8120 0.8886 0.0000
vt 0.6939 0.8971 0.0000
vt 0.7037 0.9428 0.0000
vt 0.8251 0.9287 0.0000
vt 0.8447 0.9429 0.0000
vt 0.9676 0.8462 0.0000
vt 0.9558 0.8635 0.0000
vt 0.8398 0.8782 0.0000
vt 0.8595 0.9234 0.0000
vt 0.9641 0.9104 0.0000
vt 0.9810 0.9254 0.0000
vt 0.1913 0.4585 0.0000
vt 0.1706 0.4723 0.0000
vt 0.0483 0.4619 0.0000
vt 0.0349 0.4471 0.0000
vt 0.0300 0.5448 0.0000
vt 0.0463 0.5288 0.0000
vt 0.1641 0.5327 0.0000
vt 0.1920 0.5568 0.0000
vt 0.3521 0.4453 0.0000
vt 0.3334 0.4605 0.0000
vt 0.2125 0.4717 0.0000
vt 0.2192 0.5326 0.0000
vt 0.3316 0.5230 0.0000
vt 0.3602 0.5456 0.0000
vt 0.5153 0.4216 0.0000
vt 0.4970 0.4376 0.0000
vt 0.3737 0.4568 0.0000
vt 0.3832 0.5179 0.0000
vt 0.4968 0.4984 0.0000
vt 0.5266 0.5188 0.0000
vt 0.6565 0.3968 0.0000
vt 0.6428 0.4135 0.0000
vt 0.5375 0.4327 0.0000
vt 0.5486 0.4907 0.0000
vt 0.6586 0.4789 0.0000
vt 0.6767 0.4922 0.0000
# 200 texture coords

o WallStone_003
g WallStone_003
usemtl wire_184228153
s 32
f 1/1/1 2/2/2 3/3/3 4/4/4 
f 5/5/5 6/6/6 7/7/7 8/8/8 
f 9/9/9 10/10/10 11/11/11 12/12/12 
f 13/13/13 14/14/14 15/15/15 16/16/16 
f 17/17/17 18/18/18 19/19/19 20/20/20 
f 21/21/21 22/22/22 23/23/23 24/24/24 
f 25/25/25 26/26/26 27/27/27 28/28/28 
f 29/29/29 30/30/30 31/31/31 32/32/32 
s off
f 33/33/33 34/34/33 35/35/34 36/36/35 
f 37/37/36 38/38/37 39/39/38 40/40/39 
f 41/41/40 42/42/41 43/43/42 44/44/43 
f 45/45/44 46/46/45 47/47/46 48/48/47 
f 49/49/33 50/50/33 51/51/48 52/52/49 
f 53/53/50 54/54/51 55/55/52 56/56/53 
f 57/57/54 58/58/55 59/59/56 60/60/57 
f 38/38/37 37/37/36 61/61/58 62/62/59 
f 63/63/33 64/64/33 65/65/60 66/66/61 
f 67/67/62 68/68/63 69/69/64 70/70/65 
f 71/71/66 72/72/67 73/73/68 74/74/69 
f 54/54/51 53/53/50 75/75/70 76/76/71 
f 77/77/33 78/78/33 79/79/72 80/80/73 
f 81/81/74 82/82/74 83/83/75 84/84/76 
f 85/85/77 86/86/78 87/87/79 88/88/80 
f 68/68/63 67/67/62 89/89/81 90/90/82 
f 42/91/41 41/92/40 91/93/83 92/94/84 
f 93/95/85 94/96/86 95/97/87 96/98/88 
f 97/99/89 98/100/90 99/101/91 100/102/92 
f 101/103/93 102/104/93 103/105/94 104/106/95 
f 58/107/55 57/108/54 105/109/96 106/110/97 
f 107/111/98 108/112/99 109/113/100 110/114/101 
f 111/115/102 112/116/103 113/117/104 114/118/105 
f 94/96/86 93/95/85 115/119/106 116/120/107 
f 72/121/67 71/122/66 117/123/108 118/124/109 
f 119/125/110 120/126/111 121/127/112 122/128/113 
f 123/129/114 124/130/115 125/131/116 126/132/117 
f 108/112/99 107/111/98 127/133/118 128/134/119 
f 86/135/78 85/136/77 129/137/120 130/138/121 
f 131/139/74 132/140/74 133/141/122 134/142/123 
f 135/143/124 136/144/125 137/145/126 138/146/127 
f 120/126/111 119/125/110 139/147/128 140/148/129 
s 32
f 40/40/39 39/39/38 2/2/2 1/1/1 
f 48/48/47 47/47/46 4/4/4 3/3/3 
f 56/56/53 55/55/52 6/6/6 5/5/5 
f 62/62/59 61/61/58 8/8/8 7/7/7 
f 70/70/65 69/69/64 10/10/10 9/9/9 
f 76/76/71 75/75/70 12/12/12 11/11/11 
f 84/84/76 83/83/75 14/14/14 13/13/13 
f 90/90/82 89/89/81 16/16/16 15/15/15 
f 96/98/88 95/97/87 18/18/18 17/17/17 
f 104/106/95 103/105/94 20/20/20 19/19/19 
f 110/114/101 109/113/100 22/22/22 21/21/21 
f 116/120/107 115/119/106 24/24/24 23/23/23 
f 122/128/113 121/127/112 26/26/26 25/25/25 
f 128/134/119 127/133/118 28/28/28 27/27/27 
f 134/142/123 133/141/122 30/30/30 29/29/29 
f 140/148/129 139/147/128 32/32/32 31/31/31 
s off
f 34/34/33 141/149/130 142/150/131 35/35/34 
f 36/36/35 143/151/132 144/152/133 33/33/33 
f 42/42/41 145/153/134 146/154/135 43/43/42 
f 44/44/43 147/155/136 148/156/137 41/41/40 
f 50/50/33 149/157/138 150/158/139 51/51/48 
f 52/52/49 151/159/140 141/149/130 49/49/33 
f 58/58/55 148/156/137 152/160/141 59/59/56 
f 60/60/57 153/161/142 154/162/143 57/57/54 
f 64/64/33 155/163/144 156/164/145 65/65/60 
f 66/66/61 157/165/146 149/157/138 63/63/33 
f 72/72/67 154/162/143 158/166/147 73/73/68 
f 74/74/69 159/167/148 160/168/149 71/71/66 
f 78/78/33 161/169/150 162/170/151 79/79/72 
f 80/80/73 163/171/152 155/163/144 77/77/33 
f 86/86/78 160/168/149 164/172/153 87/87/79 
f 88/88/80 165/173/154 166/174/155 85/85/77 
f 41/92/40 148/175/137 167/176/156 91/93/83 
f 92/94/84 168/177/157 145/178/134 42/91/41 
f 98/100/90 169/179/158 170/180/159 99/101/91 
f 100/102/92 171/181/160 172/182/161 97/99/89 
f 57/108/54 154/183/143 173/184/162 105/109/96 
f 106/110/97 174/185/163 148/175/137 58/107/55 
f 112/116/103 172/182/161 175/186/164 113/117/104 
f 114/118/105 176/187/165 177/188/166 111/115/102 
f 71/122/66 160/189/149 178/190/167 117/123/108 
f 118/124/109 179/191/168 154/183/143 72/121/67 
f 124/130/115 177/188/166 180/192/169 125/131/116 
f 126/132/117 181/193/170 182/194/171 123/129/114 
f 85/136/77 166/195/155 183/196/172 129/137/120 
f 130/138/121 184/197/173 160/189/149 86/135/78 
f 136/144/125 182/194/171 185/198/174 137/145/126 
f 138/146/127 186/199/175 187/200/176 135/143/124 
s 32
f 2/2/2 44/44/43 43/43/42 3/3/3 
f 4/4/4 36/36/35 35/35/34 1/1/1 
f 6/6/6 60/60/57 59/59/56 7/7/7 
f 8/8/8 52/52/49 51/51/48 5/5/5 
f 10/10/10 74/74/69 73/73/68 11/11/11 
f 12/12/12 66/66/61 65/65/60 9/9/9 
f 14/14/14 88/88/80 87/87/79 15/15/15 
f 16/16/16 80/80/73 79/79/72 13/13/13 
f 18/18/18 100/102/92 99/101/91 19/19/19 
f 20/20/20 92/94/84 91/93/83 17/17/17 
f 22/22/22 114/118/105 113/117/104 23/23/23 
f 24/24/24 106/110/97 105/109/96 21/21/21 
f 26/26/26 126/132/117 125/131/116 27/27/27 
f 28/28/28 118/124/109 117/123/108 25/25/25 
f 30/30/30 138/146/127 137/145/126 31/31/31 
f 32/32/32 130/138/121 129/137/120 29/29/29 
s off
f 38/38/37 148/156/137 147/155/136 39/39/38 
f 40/40/39 142/150/131 141/149/130 37/37/36 
f 46/46/45 144/152/133 143/151/132 47/47/46 
f 48/48/47 146/154/135 145/153/134 45/45/44 
f 54/54/51 154/162/143 153/161/142 55/55/52 
f 56/56/53 150/158/139 149/157/138 53/53/50 
f 37/37/36 141/149/130 151/159/140 61/61/58 
f 62/62/59 152/160/141 148/156/137 38/38/37 
f 68/68/63 160/168/149 159/167/148 69/69/64 
f 70/70/65 156/164/145 155/163/144 67/67/62 
f 53/53/50 149/157/138 157/165/146 75/75/70 
f 76/76/71 158/166/147 154/162/143 54/54/51 
f 82/82/74 166/174/155 165/173/154 83/83/75 
f 84/84/76 162/170/151 161/169/150 81/81/74 
f 67/67/62 155/163/144 163/171/152 89/89/81 
f 90/90/82 164/172/153 160/168/149 68/68/63 
f 94/96/86 172/182/161 171/181/160 95/97/87 
f 96/98/88 167/176/156 148/175/137 93/95/85 
f 102/104/93 145/178/134 168/177/157 103/105/94 
f 104/106/95 170/180/159 169/179/158 101/103/93 
f 108/112/99 177/188/166 176/187/165 109/113/100 
f 110/114/101 173/184/162 154/183/143 107/111/98 
f 93/95/85 148/175/137 174/185/163 115/119/106 
f 116/120/107 175/186/164 172/182/161 94/96/86 
f 120/126/111 182/194/171 181/193/170 121/127/112 
f 122/128/113 178/190/167 160/189/149 119/125/110 
f 107/111/98 154/183/143 179/191/168 127/133/118 
f 128/134/119 180/192/169 177/188/166 108/112/99 
f 132/140/74 187/200/176 186/199/175 133/141/122 
f 134/142/123 183/196/172 166/195/155 131/139/74 
f 119/125/110 160/189/149 184/197/173 139/147/128 
f 140/148/129 185/198/174 182/194/171 120/126/111 
s 32
f 39/39/38 147/155/136 44/44/43 2/2/2 
f 1/1/1 35/35/34 142/150/131 40/40/39 
f 47/47/46 143/151/132 36/36/35 4/4/4 
f 3/3/3 43/43/42 146/154/135 48/48/47 
f 55/55/52 153/161/142 60/60/57 6/6/6 
f 5/5/5 51/51/48 150/158/139 56/56/53 
f 61/61/58 151/159/140 52/52/49 8/8/8 
f 7/7/7 59/59/56 152/160/141 62/62/59 
f 69/69/64 159/167/148 74/74/69 10/10/10 
f 9/9/9 65/65/60 156/164/145 70/70/65 
f 75/75/70 157/165/146 66/66/61 12/12/12 
f 11/11/11 73/73/68 158/166/147 76/76/71 
f 83/83/75 165/173/154 88/88/80 14/14/14 
f 13/13/13 79/79/72 162/170/151 84/84/76 
f 89/89/81 163/171/152 80/80/73 16/16/16 
f 15/15/15 87/87/79 164/172/153 90/90/82 
f 95/97/87 171/181/160 100/102/92 18/18/18 
f 17/17/17 91/93/83 167/176/156 96/98/88 
f 103/105/94 168/177/157 92/94/84 20/20/20 
f 19/19/19 99/101/91 170/180/159 104/106/95 
f 109/113/100 176/187/165 114/118/105 22/22/22 
f 21/21/21 105/109/96 173/184/162 110/114/101 
f 115/119/106 174/185/163 106/110/97 24/24/24 
f 23/23/23 113/117/104 175/186/164 116/120/107 
f 121/127/112 181/193/170 126/132/117 26/26/26 
f 25/25/25 117/123/108 178/190/167 122/128/113 
f 127/133/118 179/191/168 118/124/109 28/28/28 
f 27/27/27 125/131/116 180/192/169 128/134/119 
f 133/141/122 186/199/175 138/146/127 30/30/30 
f 29/29/29 129/137/120 183/196/172 134/142/123 
f 139/147/128 184/197/173 130/138/121 32/32/32 
f 31/31/31 137/145/126 185/198/174 140/148/129 
# 168 polygons

