# 3ds Max Wavefront OBJ Exporter v0.99 - (c)2007 guruware
# File Created: 19.04.2023 12:48:37

mtllib WallPillar_01.mtl

#
# object WallPillar_01
#

v  3.0934 7.8740 -1.0518
v  3.1573 -7.8740 -0.9774
v  -3.6660 -7.8740 -0.9774
v  -3.4640 7.8740 -1.0518
v  -3.4640 7.8740 6.6918
v  -3.6660 -7.8740 6.6653
v  3.1573 -7.8740 6.6653
v  3.0934 7.8740 6.6918
v  3.6046 39.3701 -2.0027
v  -3.6989 39.3701 -2.0027
v  -3.6989 39.3701 7.5469
v  3.6046 39.3701 7.5469
v  -3.2762 -39.3701 0.1334
v  2.4911 -39.3701 0.1334
v  2.4415 -39.3701 5.6502
v  -3.2267 -39.3701 5.6502
v  2.6826 -23.6220 -0.2497
v  -3.3296 -23.6220 -0.2497
v  -3.9563 24.1833 -1.9417
v  -4.0775 26.6763 -2.3047
v  3.9539 26.6727 -2.3022
v  3.7527 24.1795 -1.9439
v  -3.4896 23.6220 -1.3992
v  3.2572 23.6220 -1.3992
v  -3.3296 -23.6221 5.9855
v  2.6826 -23.6220 5.9855
v  3.7527 24.1808 7.5269
v  3.9540 26.6741 7.8558
v  -4.0775 26.6777 7.8583
v  -3.9563 24.1846 7.5246
v  3.2572 23.6220 6.9913
v  -3.4896 23.6220 6.9913
# 32 vertices

vn 0.7074 -0.0118 -0.7067
vn 0.7061 -0.0269 -0.7076
vn -0.7063 -0.0208 -0.7076
vn -0.7074 -0.0055 -0.7067
vn -0.7074 -0.0034 0.7068
vn -0.7063 -0.0187 0.7077
vn 0.7061 -0.0248 0.7076
vn 0.7074 -0.0096 0.7067
vn 0.5698 0.5907 -0.5713
vn -0.5691 0.5914 -0.5713
vn -0.5691 0.5916 0.5711
vn 0.5698 0.5909 0.5710
vn -0.5804 -0.5841 -0.5674
vn 0.5776 -0.5864 -0.5679
vn 0.5707 -0.5874 0.5737
vn -0.5735 -0.5851 0.5733
vn 0.7071 -0.0401 -0.7060
vn -0.7073 -0.0339 -0.7061
vn -0.6483 -0.4346 -0.6252
vn -0.6972 -0.0483 -0.7153
vn 0.7003 -0.0585 -0.7115
vn 0.6388 -0.4505 -0.6237
vn -0.6076 -0.5455 -0.5773
vn 0.5954 -0.5604 -0.5757
vn -0.7077 -0.0328 0.7058
vn 0.7075 -0.0390 0.7057
vn 0.6392 -0.4452 0.6271
vn 0.7015 -0.0543 0.7106
vn -0.6983 -0.0440 0.7144
vn -0.6486 -0.4293 0.6285
vn 0.5956 -0.5564 0.5794
vn -0.6078 -0.5415 0.5809
# 32 vertex normals

vt 0.0902 0.5329 0.0000
vt 0.0929 0.6816 0.0000
vt 0.0285 0.6825 0.0000
vt 0.0283 0.5338 0.0000
vt 0.1736 0.5337 0.0000
vt 0.1733 0.6824 0.0000
vt 0.1089 0.6815 0.0000
vt 0.1116 0.5328 0.0000
vt 0.2043 0.2331 0.0000
vt 0.2726 0.2422 0.0000
vt 0.2607 0.3316 0.0000
vt 0.1923 0.3225 0.0000
vt 0.3192 0.1335 0.0000
vt 0.4678 0.1302 0.0000
vt 0.4698 0.2023 0.0000
vt 0.3212 0.2066 0.0000
vt 0.7774 0.0210 0.0000
vt 0.8319 0.0200 0.0000
vt 0.8324 0.0721 0.0000
vt 0.7788 0.0730 0.0000
vt 0.3190 0.0236 0.0000
vt 0.4677 0.0269 0.0000
vt 0.4657 0.1000 0.0000
vt 0.3171 0.0958 0.0000
vt 0.0905 0.8305 0.0000
vt 0.0908 0.9792 0.0000
vt 0.0364 0.9800 0.0000
vt 0.0338 0.8313 0.0000
vt 0.0215 0.3778 0.0000
vt 0.0200 0.3540 0.0000
vt 0.0958 0.3530 0.0000
vt 0.0943 0.3768 0.0000
vt 0.0260 0.3851 0.0000
vt 0.0897 0.3842 0.0000
vt 0.1679 0.8312 0.0000
vt 0.1648 0.9799 0.0000
vt 0.1113 0.9791 0.0000
vt 0.1112 0.8304 0.0000
vt 0.1077 0.3767 0.0000
vt 0.1062 0.3530 0.0000
vt 0.1820 0.3541 0.0000
vt 0.1805 0.3778 0.0000
vt 0.1123 0.3841 0.0000
vt 0.1760 0.3851 0.0000
vt 0.6167 0.1331 0.0000
vt 0.7654 0.1327 0.0000
vt 0.7668 0.1847 0.0000
vt 0.6183 0.1919 0.0000
vt 0.1658 0.2187 0.0000
vt 0.1424 0.2225 0.0000
vt 0.1398 0.1266 0.0000
vt 0.1634 0.1293 0.0000
vt 0.1726 0.2135 0.0000
vt 0.1705 0.1343 0.0000
vt 0.6236 0.0227 0.0000
vt 0.6473 0.0200 0.0000
vt 0.6447 0.1159 0.0000
vt 0.6212 0.1121 0.0000
vt 0.6164 0.0277 0.0000
vt 0.6143 0.1069 0.0000
vt 0.1686 0.0853 0.0000
vt 0.0200 0.0781 0.0000
vt 0.0214 0.0261 0.0000
vt 0.1702 0.0265 0.0000
vt 0.0219 0.2341 0.0000
vt 0.0908 0.2331 0.0000
vt 0.7671 0.0261 0.0000
vt 0.7647 0.1162 0.0000
vt 0.1113 0.2331 0.0000
vt 0.1802 0.2342 0.0000
vt 0.0224 0.2228 0.0000
vt 0.0200 0.1327 0.0000
# 72 texture coords

o WallPillar_01
g WallPillar_01
usemtl wire_225088199
s 2
f 1/1/1 2/2/2 3/3/3 4/4/4 
s 4
f 5/5/5 6/6/6 7/7/7 8/8/8 
s 8
f 9/9/9 10/10/10 11/11/11 12/12/12 
s 16
f 4/13/4 3/14/3 6/15/6 5/16/5 
s 32
f 13/17/13 14/18/14 15/19/15 16/20/16 
s 64
f 2/21/2 1/22/1 8/23/8 7/24/7 
s 2
f 17/25/17 14/26/14 13/27/13 18/28/18 
f 2/2/2 17/25/17 18/28/18 3/3/3 
f 19/29/19 20/30/20 21/31/21 22/32/22 
f 4/4/4 23/33/23 24/34/24 1/1/1 
s 4
f 25/35/25 16/36/16 15/37/15 26/38/26 
f 6/6/6 25/35/25 26/38/26 7/7/7 
f 27/39/27 28/40/28 29/41/29 30/42/30 
f 8/8/8 31/43/31 32/44/32 5/5/5 
s 16
f 18/45/18 13/46/13 16/47/16 25/48/25 
f 3/14/3 18/45/18 25/48/25 6/15/6 
f 30/49/30 29/50/29 20/51/20 19/52/19 
f 5/16/5 32/53/32 23/54/23 4/13/4 
s 64
f 22/55/22 21/56/21 28/57/28 27/58/27 
f 1/22/1 24/59/24 31/60/31 8/23/8 
f 26/61/26 15/62/15 14/63/14 17/64/17 
f 7/24/7 26/61/26 17/64/17 2/21/2 
s off
f 10/65/10 9/66/9 21/31/21 20/30/20 
f 9/67/9 12/68/12 28/57/28 21/56/21 
f 12/69/12 11/70/11 29/41/29 28/40/28 
f 11/71/11 10/72/10 20/51/20 29/50/29 
f 24/34/24 23/33/23 19/29/19 22/32/22 
f 23/54/23 32/53/32 30/49/30 19/52/19 
f 32/44/32 31/43/31 27/39/27 30/42/30 
f 31/60/31 24/59/24 22/55/22 27/58/27 
# 30 polygons

