# 3ds Max Wavefront OBJ Exporter v0.99 - (c)2007 guruware
# File Created: 19.04.2023 12:48:29

mtllib Walll005.mtl

#
# object Walll005
#

v  39.4083 24.9514 0.5983
v  39.4083 9.4621 0.5983
v  21.1469 9.4621 0.5983
v  21.1469 24.9514 0.5983
v  19.1784 24.9514 -1.3702
v  39.4083 24.9514 -1.3702
v  19.1784 34.9829 -1.3702
v  39.4083 34.9829 -1.3702
v  21.1493 78.3597 0.6007
v  39.4083 78.3597 0.6007
v  39.4083 34.9829 0.5983
v  21.1469 34.9829 0.5983
v  39.4083 0.1572 0.5983
v  21.1469 0.1572 0.5983
v  21.1469 24.9514 18.8596
v  21.1469 9.4621 18.8596
v  19.1784 24.9514 18.8596
v  19.1784 34.9829 18.8596
v  21.1469 34.9829 18.8596
v  21.1493 78.3597 18.8596
v  21.1469 0.1572 18.8596
# 21 vertices

vn 0.0000 -0.7071 -0.7071
vn 0.0000 0.0000 -1.0000
vn -0.7071 0.0000 -0.7071
vn -0.3015 -0.9045 -0.3015
vn -0.5774 -0.5774 -0.5774
vn -0.5774 0.5774 -0.5774
vn 0.0000 0.7071 -0.7071
vn -0.7071 0.0001 -0.7071
vn 0.0000 0.0001 -1.0000
vn -0.0000 0.7071 -0.7071
vn -0.3015 0.9045 -0.3015
vn -0.7071 -0.7071 0.0000
vn -1.0000 0.0000 0.0000
vn -0.7071 0.7071 0.0000
vn -1.0000 0.0001 0.0000
# 15 vertex normals

vt 0.0285 0.6376 0.0000
vt 0.0285 0.5206 0.0000
vt 0.3043 0.5206 0.0000
vt 0.3043 0.6376 0.0000
vt 0.0326 0.2673 0.0000
vt 0.3087 0.2673 0.0000
vt 0.3385 0.2971 0.0000
vt 0.0326 0.2971 0.0000
vt 0.3392 0.4531 0.0000
vt 0.0297 0.4531 0.0000
vt 0.0297 0.2996 0.0000
vt 0.3392 0.2996 0.0000
vt 0.3043 0.9750 0.0000
vt 0.0285 0.9750 0.0000
vt 0.0285 0.6474 0.0000
vt 0.3043 0.6474 0.0000
vt 0.3091 0.4832 0.0000
vt 0.0297 0.4832 0.0000
# 18 texture coords

o Walll005
g Walll005
usemtl 01___Default
s 32
f 1/1/1 2/2/2 3/3/3 4/4/4 
s off
f 1/5/1 4/6/4 5/7/5 6/8/1 
s 32
f 7/9/6 8/10/7 6/11/1 5/12/5 
f 9/13/8 10/14/9 11/15/10 12/16/11 
s off
f 12/17/11 11/18/10 8/10/7 7/9/6 
f 3/3/3 2/2/2 13/2/2 14/3/3 
s 32
f 15/1/12 4/4/4 3/3/3 16/2/13 
s off
f 15/5/12 17/8/12 5/7/5 4/6/4 
s 32
f 7/9/6 5/12/5 17/11/12 18/10/14 
f 9/13/8 12/16/11 19/15/14 20/14/15 
s off
f 12/17/11 7/9/6 18/10/14 19/18/14 
f 3/3/3 14/3/3 21/2/13 16/2/13 
# 12 polygons

