# 3ds Max Wavefront OBJ Exporter v0.99 - (c)2007 guruware
# File Created: 19.04.2023 12:48:17

mtllib Wood_Wall_Two_Meters.mtl

#
# object Wood_Wall_Two_Meters
#

v  -39.5402 6.0454 -3.7617
v  -78.9103 6.0454 -3.7617
v  -78.9103 9.4621 -3.7617
v  -39.3686 9.4621 -3.7617
v  -78.9103 24.9738 -1.7932
v  -78.9103 34.9828 -1.7932
v  -39.3686 34.9828 -1.7932
v  -39.3686 24.9514 -1.7932
v  -71.9334 24.9514 -1.7932
v  -39.3686 6.0454 0.1777
v  -78.9103 6.0454 0.1777
v  -78.9103 9.4621 0.1753
v  -46.1409 9.4621 0.1753
v  -45.9984 9.4621 -1.7785
v  -78.9103 34.9828 0.1753
v  -78.9103 78.3597 0.1777
v  -39.3686 78.3597 0.1777
v  -39.3686 34.9828 0.1753
v  -39.3686 9.4621 -1.7785
v  -39.3686 24.9514 0.1753
v  -71.9334 24.9514 0.1753
v  -39.3686 9.4621 0.1753
v  -78.9103 24.9514 0.1753
v  0.0015 9.4621 -3.7617
v  0.0015 6.0454 -3.7617
v  0.0015 24.9738 -1.7932
v  -6.9754 24.9514 -1.7932
v  0.0015 34.9828 -1.7932
v  0.0015 6.0454 0.1777
v  0.0015 9.4621 0.1753
v  -32.9104 9.4621 -1.7785
v  -32.7679 9.4621 0.1753
v  0.0015 34.9828 0.1753
v  0.0015 78.3597 0.1777
v  -6.9754 24.9514 0.1753
v  0.0015 24.9514 0.1753
v  -39.3686 -0.1272 0.1777
v  -78.9103 -0.1272 0.1777
v  0.0015 -0.1272 0.1777
# 39 vertices

vn 0.0000 -0.7071 -0.7071
vn 0.0000 0.7071 -0.7071
vn -0.2605 -0.5530 -0.7914
vn 0.1147 -0.0264 -0.9930
vn -0.8027 0.1891 -0.5656
vn -0.1555 -0.7292 -0.6664
vn 0.0000 0.0001 -1.0000
vn -0.0005 0.9891 -0.1473
vn 0.8209 -0.1853 -0.5402
vn -0.0008 0.7831 -0.6218
vn -0.3457 -0.7313 -0.5880
vn 0.2605 -0.5530 -0.7914
vn -0.1152 -0.0267 -0.9930
vn 0.1555 -0.7292 -0.6664
vn 0.8027 0.1891 -0.5656
vn -0.8207 -0.1861 -0.5402
vn 0.3457 -0.7313 -0.5880
vn 0.0000 0.0000 -1.0000
# 18 vertex normals

vt 0.6063 0.5417 0.0000
vt 0.6042 0.2272 0.0000
vt 0.6828 0.2267 0.0000
vt 0.6846 0.4896 0.0000
vt 0.5144 0.4154 0.0000
vt 0.5144 0.5286 0.0000
vt 0.0692 0.5286 0.0000
vt 0.0692 0.4152 0.0000
vt 0.4355 0.4152 0.0000
vt 0.5748 0.5419 0.0000
vt 0.5727 0.2275 0.0000
vt 0.7142 0.2265 0.0000
vt 0.7160 0.4894 0.0000
vt 0.7004 0.4895 0.0000
vt 0.5086 0.6729 0.0000
vt 0.5086 0.9159 0.0000
vt 0.0675 0.9159 0.0000
vt 0.0675 0.6729 0.0000
vt 0.7109 0.5761 0.0000
vt 0.7117 0.9732 0.0000
vt 0.6837 0.9692 0.0000
vt 0.6844 0.5773 0.0000
vt 0.0690 0.3909 0.0000
vt 0.4353 0.3909 0.0000
vt 0.4353 0.4132 0.0000
vt 0.0690 0.4132 0.0000
vt 0.5144 0.5509 0.0000
vt 0.0692 0.5509 0.0000
vt 0.4632 0.3334 0.0000
vt 0.1002 0.3334 0.0000
vt 0.1002 0.2466 0.0000
vt 0.1726 0.2466 0.0000
vt 0.5413 0.2466 0.0000
vt 0.5413 0.3334 0.0000
vt 0.5977 0.5746 0.0000
vt 0.5998 0.9702 0.0000
vt 0.5739 0.9741 0.0000
vt 0.5720 0.5770 0.0000
vt 0.6333 0.9579 0.0000
vt 0.6426 0.5661 0.0000
vt 0.6640 0.5666 0.0000
vt 0.6548 0.9584 0.0000
vt 0.6849 0.5412 0.0000
# 43 texture coords

o Wood_Wall_Two_Meters
g Wood_Wall_Two_Meters
usemtl 01___Default
s 32
f 1/1/1 2/2/1 3/3/2 4/4/2 
f 5/5/3 6/6/2 7/7/2 8/8/1 9/9/4 
s off
f 10/10/1 11/11/1 2/2/1 1/1/1 
f 12/12/2 13/13/5 14/14/6 4/4/2 3/3/2 
s 32
f 15/15/2 16/16/7 17/17/7 18/18/2 
f 14/19/6 5/20/3 9/21/4 19/22/8 
s off
f 20/23/1 21/24/9 9/25/4 8/26/1 
f 15/27/2 18/28/2 7/7/2 6/6/2 
s 32
f 21/29/9 20/30/1 22/31/10 
f 13/32/5 12/33/2 23/34/11 
s off
f 13/35/5 23/36/11 5/37/3 14/38/6 
f 21/39/9 22/40/10 19/41/8 9/42/4 
f 4/4/2 14/4/6 19/43/8 
s 32
f 1/1/1 4/43/2 24/3/2 25/2/1 
f 26/5/12 27/9/13 8/8/1 7/7/2 28/6/2 
s off
f 10/10/1 1/1/1 25/2/1 29/11/1 
f 30/12/2 24/3/2 4/43/2 31/14/14 32/13/15 
s 32
f 33/15/2 18/18/2 17/17/7 34/16/7 
f 31/19/14 19/22/8 27/21/13 26/20/12 
s off
f 20/23/1 8/26/1 27/25/13 35/24/16 
f 33/27/2 28/6/2 7/7/2 18/28/2 
s 32
f 35/29/16 22/31/10 20/30/1 
f 32/32/15 36/34/17 30/33/2 
s off
f 32/35/15 31/38/14 26/37/12 36/36/17 
f 35/39/16 27/42/13 19/41/8 22/40/10 
f 4/43/2 19/43/8 31/4/14 
f 11/11/1 10/10/1 37/10/18 38/11/18 
f 10/10/1 29/11/1 39/11/18 37/10/18 
# 22 polygons - 6 triangles

